<svg width="52" height="52" viewBox="0 0 52 52" fill="none" xmlns="http://www.w3.org/2000/svg">
<g clip-path="url(#clip0)">
<path d="M44.7403 3.93663C44.2574 3.4929 43.6249 3.24772 42.9691 3.25006H29.9691C29.8191 2.51252 29.4708 1.82988 28.9616 1.27569C28.5792 0.867997 28.1164 0.544113 27.6025 0.324536C27.0885 0.104959 26.5345 -0.00552992 25.9756 6.24779e-05C25.0315 -0.0155574 24.112 0.301501 23.3782 0.8957C22.6443 1.4899 22.143 2.32335 21.9619 3.25006H8.9375C8.29103 3.25006 7.67105 3.50687 7.21393 3.96399C6.75681 4.42111 6.5 5.0411 6.5 5.68756V49.5626C6.5 50.209 6.75681 50.829 7.21393 51.2861C7.67105 51.7433 8.29103 52.0001 8.9375 52.0001H43.0625C43.3835 52.0033 43.7019 51.9425 43.9991 51.8212C44.2963 51.6998 44.5663 51.5204 44.7933 51.2934C45.0203 51.0664 45.1997 50.7964 45.3211 50.4992C45.4424 50.202 45.5033 49.8836 45.5 49.5626V5.68756C45.5013 5.35905 45.4344 5.03385 45.3036 4.73248C45.1729 4.43111 44.9811 4.16012 44.7403 3.93663ZM22.6931 4.87506C22.9086 4.87506 23.1153 4.78946 23.2676 4.63709C23.42 4.48471 23.5056 4.27805 23.5056 4.06256C23.5005 3.73831 23.5612 3.41638 23.684 3.11622C23.8067 2.81605 23.989 2.54386 24.2198 2.31607C24.4507 2.08829 24.7252 1.90962 25.027 1.79086C25.3288 1.67209 25.6515 1.61569 25.9756 1.62506C26.3139 1.61547 26.6504 1.67788 26.9628 1.80815C27.2751 1.93841 27.5563 2.13357 27.7875 2.38069C28.2046 2.84169 28.4362 3.44086 28.4375 4.06256C28.4375 4.27805 28.5231 4.48471 28.6755 4.63709C28.8278 4.78946 29.0345 4.87506 29.25 4.87506H34.125V9.75006H17.875V4.87506H22.6931ZM43.875 49.5626C43.875 49.7781 43.7894 49.9847 43.637 50.1371C43.4846 50.2895 43.278 50.3751 43.0625 50.3751H8.9375C8.72201 50.3751 8.51535 50.2895 8.36298 50.1371C8.2106 49.9847 8.125 49.7781 8.125 49.5626V5.68756C8.125 5.47207 8.2106 5.26541 8.36298 5.11304C8.51535 4.96067 8.72201 4.87506 8.9375 4.87506H16.25V10.5626C16.25 10.7781 16.3356 10.9847 16.488 11.1371C16.6403 11.2895 16.847 11.3751 17.0625 11.3751H34.9375C35.153 11.3751 35.3596 11.2895 35.512 11.1371C35.6644 10.9847 35.75 10.7781 35.75 10.5626V4.87506H42.9691C43.2132 4.8711 43.4497 4.95963 43.6312 5.12288C43.7094 5.19449 43.7715 5.28182 43.8135 5.37914C43.8555 5.47646 43.8765 5.58157 43.875 5.68756V49.5626Z" fill="#161616"/>
<path d="M39.8125 8.125H38.1875C37.972 8.125 37.7653 8.2106 37.613 8.36298C37.4606 8.51535 37.375 8.72201 37.375 8.9375C37.375 9.15299 37.4606 9.35965 37.613 9.51202C37.7653 9.6644 37.972 9.75 38.1875 9.75H39V45.5H13V9.75H13.8125C14.028 9.75 14.2347 9.6644 14.387 9.51202C14.5394 9.35965 14.625 9.15299 14.625 8.9375C14.625 8.72201 14.5394 8.51535 14.387 8.36298C14.2347 8.2106 14.028 8.125 13.8125 8.125H12.1875C11.972 8.125 11.7653 8.2106 11.613 8.36298C11.4606 8.51535 11.375 8.72201 11.375 8.9375V46.3125C11.375 46.528 11.4606 46.7347 11.613 46.887C11.7653 47.0394 11.972 47.125 12.1875 47.125H39.8125C40.028 47.125 40.2347 47.0394 40.387 46.887C40.5394 46.7347 40.625 46.528 40.625 46.3125V8.9375C40.625 8.72201 40.5394 8.51535 40.387 8.36298C40.2347 8.2106 40.028 8.125 39.8125 8.125Z" fill="#161616"/>
<path d="M26.8125 19.5H35.75C35.9655 19.5 36.1722 19.4144 36.3245 19.262C36.4769 19.1097 36.5625 18.903 36.5625 18.6875C36.5625 18.472 36.4769 18.2653 36.3245 18.113C36.1722 17.9606 35.9655 17.875 35.75 17.875H26.8125C26.597 17.875 26.3903 17.9606 26.238 18.113C26.0856 18.2653 26 18.472 26 18.6875C26 18.903 26.0856 19.1097 26.238 19.262C26.3903 19.4144 26.597 19.5 26.8125 19.5Z" fill="#161616"/>
<path d="M26.8125 24.375H33.3125C33.528 24.375 33.7347 24.2894 33.887 24.137C34.0394 23.9847 34.125 23.778 34.125 23.5625C34.125 23.347 34.0394 23.1403 33.887 22.988C33.7347 22.8356 33.528 22.75 33.3125 22.75H26.8125C26.597 22.75 26.3903 22.8356 26.238 22.988C26.0856 23.1403 26 23.347 26 23.5625C26 23.778 26.0856 23.9847 26.238 24.137C26.3903 24.2894 26.597 24.375 26.8125 24.375Z" fill="#161616"/>
<path d="M18.6875 24.2938C18.8399 24.4449 19.0458 24.5296 19.2603 24.5295H19.2969C19.4132 24.5278 19.5278 24.5012 19.6329 24.4514C19.738 24.4017 19.8313 24.3299 19.9063 24.241L24.1841 19.0938C24.2583 19.013 24.3154 18.918 24.3519 18.8145C24.3884 18.711 24.4036 18.6012 24.3965 18.4917C24.3894 18.3822 24.3602 18.2753 24.3107 18.1774C24.2611 18.0795 24.1923 17.9926 24.1082 17.922C24.0242 17.8514 23.9268 17.7986 23.8218 17.7667C23.7168 17.7349 23.6064 17.7246 23.4973 17.7365C23.3882 17.7485 23.2827 17.7824 23.1871 17.8362C23.0915 17.89 23.0077 17.9627 22.941 18.0498L19.2075 22.5185L16.8228 20.1379C16.668 19.9981 16.4654 19.9232 16.2569 19.9287C16.0484 19.9342 15.85 20.0197 15.7028 20.1674C15.5556 20.3152 15.4708 20.5139 15.466 20.7224C15.4613 20.9309 15.5369 21.1333 15.6772 21.2876L18.6875 24.2938Z" fill="#161616"/>
<path d="M35.75 30.875H26.8125C26.597 30.875 26.3903 30.7894 26.238 30.637C26.0856 30.4847 26 30.278 26 30.0625C26 29.847 26.0856 29.6403 26.238 29.488C26.3903 29.3356 26.597 29.25 26.8125 29.25H35.75C35.9655 29.25 36.1722 29.3356 36.3245 29.488C36.4769 29.6403 36.5625 29.847 36.5625 30.0625C36.5625 30.278 36.4769 30.4847 36.3245 30.637C36.1722 30.7894 35.9655 30.875 35.75 30.875Z" fill="#161616"/>
<path d="M33.3125 35.75H26.8125C26.597 35.75 26.3903 35.6644 26.238 35.512C26.0856 35.3597 26 35.153 26 34.9375C26 34.722 26.0856 34.5153 26.238 34.363C26.3903 34.2106 26.597 34.125 26.8125 34.125H33.3125C33.528 34.125 33.7347 34.2106 33.887 34.363C34.0394 34.5153 34.125 34.722 34.125 34.9375C34.125 35.153 34.0394 35.3597 33.887 35.512C33.7347 35.6644 33.528 35.75 33.3125 35.75Z" fill="#161616"/>
<path d="M19.2603 35.9043C19.0457 35.9045 18.8398 35.8198 18.6875 35.6687L15.6772 32.6584C15.5955 32.5846 15.5296 32.495 15.4836 32.395C15.4376 32.295 15.4124 32.1868 15.4095 32.0767C15.4066 31.9667 15.426 31.8572 15.4667 31.755C15.5074 31.6527 15.5685 31.5598 15.6461 31.4818C15.7238 31.4038 15.8165 31.3425 15.9187 31.3014C16.0208 31.2604 16.1302 31.2405 16.2402 31.243C16.3503 31.2455 16.4586 31.2704 16.5588 31.316C16.6589 31.3617 16.7487 31.4272 16.8228 31.5087L19.2075 33.8893L22.9409 29.4205C23.0799 29.2557 23.2787 29.1528 23.4935 29.1345C23.7084 29.1162 23.9217 29.184 24.0866 29.323C24.2514 29.462 24.3543 29.6608 24.3726 29.8757C24.3909 30.0905 24.323 30.3038 24.184 30.4687L19.9062 35.6159C19.8335 35.7022 19.7435 35.7725 19.6421 35.8222C19.5407 35.8718 19.43 35.8998 19.3172 35.9043H19.2603Z" fill="#161616"/>
</g>
<defs>
<clipPath id="clip0">
<rect width="52" height="52" fill="white"/>
</clipPath>
</defs>
</svg>
