<svg width="52" height="52" viewBox="0 0 52 52" fill="none"
  xmlns="http://www.w3.org/2000/svg">
  <path d="M37.6627 24.4656C37.6627 26.0101 36.4106 27.2621 34.8661 27.2621C33.3217 27.2621 32.0696 26.0101 32.0696 24.4656C32.0696 22.9211 33.3217 21.6691 34.8661 21.6691C36.4106 21.6691 37.6627 22.9211 37.6627 24.4656Z" stroke="#4F4F4F" stroke-width="1.5" stroke-linecap="round" stroke-linejoin="round"/>
  <path d="M19.9302 24.4656C19.9302 26.0101 18.6781 27.2621 17.1337 27.2621C15.5892 27.2621 14.3372 26.0101 14.3372 24.4656C14.3372 22.9211 15.5892 21.6691 17.1337 21.6691C18.6781 21.6691 19.9302 22.9211 19.9302 24.4656Z" stroke="#4F4F4F" stroke-width="1.5" stroke-linecap="round" stroke-linejoin="round"/>
  <mask id="path-4-inside-1" fill="white">
    <path fill-rule="evenodd" clip-rule="evenodd" d="M18.5697 30.2286C18.213 31.1858 18.0203 32.2834 18.0203 33.4124V34.8834H10.9272V33.3318C10.9272 32.5088 11.2542 31.7195 11.8361 31.1375C12.4181 30.5556 13.2074 30.2286 14.0304 30.2286H18.5697Z"/>
  </mask>
  <path d="M18.5697 30.2286L19.9753 30.7524C20.1469 30.2919 20.0821 29.7766 19.8017 29.373C19.5214 28.9693 19.0612 28.7286 18.5697 28.7286V30.2286ZM18.0203 34.8834V36.3834C18.8487 36.3834 19.5203 35.7118 19.5203 34.8834H18.0203ZM10.9272 34.8834H9.42725C9.42725 35.7118 10.0988 36.3834 10.9272 36.3834V34.8834ZM11.8361 31.1375L10.7755 30.0769L11.8361 31.1375ZM17.1642 29.7048C16.7403 30.8421 16.5203 32.1185 16.5203 33.4124H19.5203C19.5203 32.4483 19.6857 31.5294 19.9753 30.7524L17.1642 29.7048ZM16.5203 33.4124V34.8834H19.5203V33.4124H16.5203ZM18.0203 33.3834H10.9272V36.3834H18.0203V33.3834ZM12.4272 34.8834V33.3318H9.42725V34.8834H12.4272ZM12.4272 33.3318C12.4272 32.9066 12.5962 32.4988 12.8968 32.1982L10.7755 30.0769C9.91222 30.9401 9.42725 32.111 9.42725 33.3318H12.4272ZM12.8968 32.1982C13.1975 31.8975 13.6052 31.7286 14.0304 31.7286V28.7286C12.8096 28.7286 11.6388 29.2136 10.7755 30.0769L12.8968 32.1982ZM14.0304 31.7286H18.5697V28.7286H14.0304V31.7286Z" fill="#4F4F4F" mask="url(#path-4-inside-1)"/>
  <mask id="path-6-inside-2" fill="white">
    <path fill-rule="evenodd" clip-rule="evenodd" d="M33.9795 34.8834V33.4124C33.9795 32.2834 33.7868 31.1858 33.4301 30.2286H37.9694C38.7924 30.2286 39.5817 30.5556 40.1637 31.1375C40.7456 31.7195 41.0726 32.5088 41.0726 33.3318V34.8834H33.9795Z"/>
  </mask>
  <path d="M33.9795 34.8834H32.4795C32.4795 35.7118 33.1511 36.3834 33.9795 36.3834V34.8834ZM33.4301 30.2286V28.7286C32.9387 28.7286 32.4784 28.9693 32.1981 29.373C31.9178 29.7766 31.8529 30.2919 32.0246 30.7524L33.4301 30.2286ZM40.1637 31.1375L41.2243 30.0769L41.2243 30.0769L40.1637 31.1375ZM41.0726 34.8834V36.3834C41.901 36.3834 42.5726 35.7118 42.5726 34.8834H41.0726ZM35.4795 34.8834V33.4124H32.4795V34.8834H35.4795ZM35.4795 33.4124C35.4795 32.1185 35.2595 30.8421 34.8357 29.7048L32.0246 30.7524C32.3141 31.5294 32.4795 32.4483 32.4795 33.4124H35.4795ZM33.4301 31.7286H37.9694V28.7286H33.4301V31.7286ZM37.9694 31.7286C38.3946 31.7286 38.8024 31.8975 39.103 32.1982L41.2243 30.0769C40.3611 29.2136 39.1902 28.7286 37.9694 28.7286V31.7286ZM39.103 32.1982C39.4037 32.4988 39.5726 32.9066 39.5726 33.3318H42.5726C42.5726 32.111 42.0876 30.9401 41.2243 30.0769L39.103 32.1982ZM39.5726 33.3318V34.8834H42.5726V33.3318H39.5726ZM41.0726 33.3834H33.9795V36.3834H41.0726V33.3834Z" fill="#4F4F4F" mask="url(#path-6-inside-2)"/>
  <path d="M33.093 37.765V33.3319C33.093 31.921 32.7194 30.5679 32.0543 29.5702C31.3892 28.5726 30.4871 28.0121 29.5465 28.0121H22.4535C21.5129 28.0121 20.6108 28.5726 19.9457 29.5702C19.2806 30.5679 18.907 31.921 18.907 33.3319V37.765" fill="#161616"/>
  <path d="M25.9998 25.3522C28.4482 25.3522 30.433 23.3674 30.433 20.9191C30.433 18.4707 28.4482 16.486 25.9998 16.486C23.5515 16.486 21.5667 18.4707 21.5667 20.9191C21.5667 23.3674 23.5515 25.3522 25.9998 25.3522Z" fill="#161616"/>
</svg>
