<svg width="52" height="42" viewBox="0 0 52 42" fill="none" xmlns="http://www.w3.org/2000/svg">
<path d="M22 21V19C22 17.9391 21.5786 16.9217 20.8284 16.1716C20.0783 15.4214 19.0609 15 18 15H10C8.93913 15 7.92172 15.4214 7.17157 16.1716C6.42143 16.9217 6 17.9391 6 19V21" fill="#161616"/>
<path d="M22 21V19C22 17.9391 21.5786 16.9217 20.8284 16.1716C20.0783 15.4214 19.0609 15 18 15H10C8.93913 15 7.92172 15.4214 7.17157 16.1716C6.42143 16.9217 6 17.9391 6 19V21H22Z" stroke="#161616" stroke-width="2" stroke-linecap="round" stroke-linejoin="round"/>
<path d="M14 11C16.2091 11 18 9.20914 18 7C18 4.79086 16.2091 3 14 3C11.7909 3 10 4.79086 10 7C10 9.20914 11.7909 11 14 11Z" fill="#161616" stroke="#161616" stroke-width="2" stroke-linecap="round" stroke-linejoin="round"/>
<path d="M46 21V19C46 17.9391 45.5786 16.9217 44.8284 16.1716C44.0783 15.4214 43.0609 15 42 15H34C32.9391 15 31.9217 15.4214 31.1716 16.1716C30.4214 16.9217 30 17.9391 30 19V21" fill="#FCFCFC" stroke="#161616" stroke-width="2" stroke-linecap="round" stroke-linejoin="round"/>
<path d="M38 11C40.2091 11 42 9.20914 42 7C42 4.79086 40.2091 3 38 3C35.7909 3 34 4.79086 34 7C34 9.20914 35.7909 11 38 11Z" fill="#FCFCFC" stroke="#161616" stroke-width="2" stroke-linecap="round" stroke-linejoin="round"/>
<path d="M1.30327 39H2.30895V34.858C2.30895 33.9716 3.00781 33.3239 3.96236 33.3239C4.23082 33.3239 4.50781 33.375 4.57599 33.392V32.3693C4.46094 32.3608 4.19673 32.3523 4.04759 32.3523C3.26349 32.3523 2.58168 32.7955 2.34304 33.4432H2.27486V32.4545H1.30327V39ZM8.31321 39.1364C9.64276 39.1364 10.6143 38.4716 10.9212 37.483L9.94957 37.2102C9.69389 37.892 9.10156 38.233 8.31321 38.233C7.13281 38.233 6.31889 37.4702 6.27202 36.0682H11.0234V35.642C11.0234 33.2045 9.57457 32.3693 8.21094 32.3693C6.43821 32.3693 5.26207 33.767 5.26207 35.7784C5.26207 37.7898 6.42116 39.1364 8.31321 39.1364ZM6.27202 35.1989C6.3402 34.1804 7.06037 33.2727 8.21094 33.2727C9.30185 33.2727 10.0007 34.0909 10.0007 35.1989H6.27202ZM15.0249 39.1364C16.2862 39.1364 16.7124 38.3523 16.9339 37.9943H17.0533V39H18.0249V30.2727H17.0192V33.4943H16.9339C16.7124 33.1534 16.3203 32.3693 15.0419 32.3693C13.3885 32.3693 12.2464 33.6818 12.2464 35.7443C12.2464 37.8239 13.3885 39.1364 15.0249 39.1364ZM15.1612 38.233C13.8999 38.233 13.2521 37.125 13.2521 35.7273C13.2521 34.3466 13.8828 33.2727 15.1612 33.2727C16.3885 33.2727 17.0362 34.2614 17.0362 35.7273C17.0362 37.2102 16.3714 38.233 15.1612 38.233ZM24.1314 36.3239C24.1314 37.5511 23.1939 38.1136 22.4439 38.1136C21.6087 38.1136 21.0121 37.5 21.0121 36.5455V32.4545H20.0064V36.6136C20.0064 38.2841 20.8928 39.0852 22.12 39.0852C23.1087 39.0852 23.7564 38.5568 24.0632 37.892H24.1314V39H25.1371V32.4545H24.1314V36.3239ZM26.7915 39H31.9222V38.0625H28.1893V37.9943L31.8029 33.2557V32.4545H26.9109V33.392H30.5075V33.4602L26.7915 38.233V39ZM33.4712 39H34.4769V32.4545H33.4712V39ZM33.9826 31.3636C34.3746 31.3636 34.6985 31.0568 34.6985 30.6818C34.6985 30.3068 34.3746 30 33.9826 30C33.5906 30 33.2667 30.3068 33.2667 30.6818C33.2667 31.0568 33.5906 31.3636 33.9826 31.3636ZM39.0632 39.1364C40.3928 39.1364 41.3643 38.4716 41.6712 37.483L40.6996 37.2102C40.4439 37.892 39.8516 38.233 39.0632 38.233C37.8828 38.233 37.0689 37.4702 37.022 36.0682H41.7734V35.642C41.7734 33.2045 40.3246 32.3693 38.9609 32.3693C37.1882 32.3693 36.0121 33.767 36.0121 35.7784C36.0121 37.7898 37.1712 39.1364 39.0632 39.1364ZM37.022 35.1989C37.0902 34.1804 37.8104 33.2727 38.9609 33.2727C40.0518 33.2727 40.7507 34.0909 40.7507 35.1989H37.022ZM43.3033 39H44.3089V34.858C44.3089 33.9716 45.0078 33.3239 45.9624 33.3239C46.2308 33.3239 46.5078 33.375 46.576 33.392V32.3693C46.4609 32.3608 46.1967 32.3523 46.0476 32.3523C45.2635 32.3523 44.5817 32.7955 44.343 33.4432H44.2749V32.4545H43.3033V39ZM51.0249 32.4545H49.6271V30.8864H48.6214V32.4545H47.6328V33.3068H48.6214V37.3977C48.6214 38.5398 49.5419 39.0852 50.3942 39.0852C50.7692 39.0852 51.0078 39.017 51.1442 38.9659L50.9396 38.0625C50.8544 38.0795 50.718 38.1136 50.4964 38.1136C50.0533 38.1136 49.6271 37.9773 49.6271 37.125V33.3068H51.0249V32.4545Z" fill="#161616"/>
</svg>
