<svg width="52" height="52" viewBox="0 0 52 52" fill="none" xmlns="http://www.w3.org/2000/svg">
<path fill-rule="evenodd" clip-rule="evenodd" d="M38.081 3C36.3322 3 34.9542 4.48963 35.09 6.23306L35.3961 10.1615C32.569 8.77842 29.3776 8 26 8C14.402 8 5 17.1782 5 28.5C5 39.8218 14.402 49 26 49C37.598 49 47 39.8218 47 28.5C47 24.4741 45.8112 20.7193 43.7576 17.5517C43.7213 16.4051 43.2443 15.3697 42.4904 14.6092C42.8589 14.1527 43.0969 13.5846 43.1456 12.9593L43.6698 6.23306C43.8056 4.48963 42.4275 3 40.6788 3H38.081ZM40.4952 13.6667C40.5865 13.6337 40.6716 13.5877 40.7485 13.5309C40.9745 13.364 41.1283 13.1037 41.1517 12.804L41.6758 6.07769C41.7211 5.49654 41.2617 5 40.6788 5H38.081C37.4981 5 37.0387 5.49654 37.084 6.07769L37.4941 11.3405C38.5667 12.0266 39.5711 12.8059 40.4952 13.6667Z" fill="#F2F2F2"/>
<path d="M34.8661 28.0121C36.8248 28.0121 38.4127 26.4243 38.4127 24.4656C38.4127 22.5069 36.8248 20.9191 34.8661 20.9191C32.9075 20.9191 31.3196 22.5069 31.3196 24.4656C31.3196 26.4243 32.9075 28.0121 34.8661 28.0121Z" fill="#161616"/>
<path d="M17.1337 28.0121C19.0923 28.0121 20.6802 26.4243 20.6802 24.4656C20.6802 22.5069 19.0923 20.9191 17.1337 20.9191C15.175 20.9191 13.5872 22.5069 13.5872 24.4656C13.5872 26.4243 15.175 28.0121 17.1337 28.0121Z" fill="#161616"/>
<path fill-rule="evenodd" clip-rule="evenodd" d="M18.5697 30.2286C18.213 31.1858 18.0203 32.2834 18.0203 33.4124V34.8834H10.9272V33.3318C10.9272 32.5088 11.2542 31.7195 11.8361 31.1375C12.4181 30.5556 13.2074 30.2286 14.0304 30.2286H18.5697Z" fill="#161616"/>
<path fill-rule="evenodd" clip-rule="evenodd" d="M33.9795 34.8834V33.4124C33.9795 32.2834 33.7868 31.1858 33.4301 30.2286H37.9694C38.7924 30.2286 39.5817 30.5556 40.1637 31.1375C40.7456 31.7195 41.0726 32.5088 41.0726 33.3318V34.8834H33.9795Z" fill="#161616"/>
<path d="M33.093 37.765V33.3319C33.093 31.921 32.7194 30.5679 32.0543 29.5702C31.3892 28.5726 30.4871 28.0121 29.5465 28.0121H22.4535C21.5129 28.0121 20.6108 28.5726 19.9457 29.5702C19.2806 30.5679 18.907 31.921 18.907 33.3319V37.765" fill="#161616"/>
<path d="M25.9998 25.3522C28.4482 25.3522 30.433 23.3674 30.433 20.9191C30.433 18.4707 28.4482 16.486 25.9998 16.486C23.5515 16.486 21.5667 18.4707 21.5667 20.9191C21.5667 23.3674 23.5515 25.3522 25.9998 25.3522Z" fill="#161616"/>
<path d="M37.084 6.07769C37.0387 5.49654 37.498 5 38.081 5H40.6788C41.2617 5 41.7211 5.49654 41.6758 6.07769L41.1517 12.804C41.1111 13.3245 40.6769 13.7263 40.1547 13.7263H38.6051C38.0829 13.7263 37.6487 13.3245 37.6081 12.804L37.084 6.07769Z" fill="#161616"/>
<circle cx="39.3799" cy="17.6928" r="2.37989" fill="#161616"/>
</svg>
