<svg width="48" height="42" viewBox="0 0 48 42" fill="none" xmlns="http://www.w3.org/2000/svg">
<path d="M20 21V19C20 17.9391 19.5786 16.9217 18.8284 16.1716C18.0783 15.4214 17.0609 15 16 15H8C6.93913 15 5.92172 15.4214 5.17157 16.1716C4.42143 16.9217 4 17.9391 4 19V21" fill="#161616"/>
<path d="M20 21V19C20 17.9391 19.5786 16.9217 18.8284 16.1716C18.0783 15.4214 17.0609 15 16 15H8C6.93913 15 5.92172 15.4214 5.17157 16.1716C4.42143 16.9217 4 17.9391 4 19V21H20Z" stroke="#161616" stroke-width="2" stroke-linecap="round" stroke-linejoin="round"/>
<path d="M12 11C14.2091 11 16 9.20914 16 7C16 4.79086 14.2091 3 12 3C9.79086 3 8 4.79086 8 7C8 9.20914 9.79086 11 12 11Z" fill="#161616" stroke="#161616" stroke-width="2" stroke-linecap="round" stroke-linejoin="round"/>
<path d="M44 21V19C44 17.9391 43.5786 16.9217 42.8284 16.1716C42.0783 15.4214 41.0609 15 40 15H32C30.9391 15 29.9217 15.4214 29.1716 16.1716C28.4214 16.9217 28 17.9391 28 19V21" fill="#161616"/>
<path d="M44 21V19C44 17.9391 43.5786 16.9217 42.8284 16.1716C42.0783 15.4214 41.0609 15 40 15H32C30.9391 15 29.9217 15.4214 29.1716 16.1716C28.4214 16.9217 28 17.9391 28 19V21H44Z" stroke="#161616" stroke-width="2" stroke-linecap="round" stroke-linejoin="round"/>
<path d="M36 11C38.2091 11 40 9.20914 40 7C40 4.79086 38.2091 3 36 3C33.7909 3 32 4.79086 32 7C32 9.20914 33.7909 11 36 11Z" fill="#161616" stroke="#161616" stroke-width="2" stroke-linecap="round" stroke-linejoin="round"/>
<path d="M6.38885 39H11.7241V38.0625H7.44567V35.0966H11.3832V34.1591H7.44567V31.2102H11.6559V30.2727H6.38885V39ZM13.4244 39H14.43V34.858C14.43 33.9716 15.1289 33.3239 16.0835 33.3239C16.3519 33.3239 16.6289 33.375 16.6971 33.392V32.3693C16.582 32.3608 16.3178 32.3523 16.1687 32.3523C15.3846 32.3523 14.7028 32.7955 14.4641 33.4432H14.396V32.4545H13.4244V39ZM18.8949 35.0625C18.8949 33.9205 19.6236 33.2727 20.6165 33.2727C21.5625 33.2727 22.1335 33.8693 22.1335 34.9091V39H23.1392V34.8409C23.1392 33.1577 22.2443 32.3693 20.9062 32.3693C19.875 32.3693 19.2869 32.7997 18.9801 33.4773H18.8949V30.2727H17.8892V39H18.8949V35.0625ZM27.6381 39.1364C29.4109 39.1364 30.604 37.7898 30.604 35.7614C30.604 33.7159 29.4109 32.3693 27.6381 32.3693C25.8654 32.3693 24.6722 33.7159 24.6722 35.7614C24.6722 37.7898 25.8654 39.1364 27.6381 39.1364ZM27.6381 38.233C26.2915 38.233 25.6779 37.0739 25.6779 35.7614C25.6779 34.4489 26.2915 33.2727 27.6381 33.2727C28.9847 33.2727 29.5984 34.4489 29.5984 35.7614C29.5984 37.0739 28.9847 38.233 27.6381 38.233ZM26.4109 31.3636C26.8029 31.3636 27.0927 31.0398 27.0927 30.6818C27.0927 30.2898 26.8029 30 26.4109 30C26.0529 30 25.729 30.2898 25.729 30.6818C25.729 31.0398 26.0529 31.3636 26.4109 31.3636ZM28.8654 31.3636C29.2575 31.3636 29.5472 31.0398 29.5472 30.6818C29.5472 30.2898 29.2575 30 28.8654 30C28.5075 30 28.1836 30.2898 28.1836 30.6818C28.1836 31.0398 28.5075 31.3636 28.8654 31.3636ZM33.1449 35.0625C33.1449 33.9205 33.8736 33.2727 34.8665 33.2727C35.8125 33.2727 36.3835 33.8693 36.3835 34.9091V39H37.3892V34.8409C37.3892 33.1577 36.4943 32.3693 35.1562 32.3693C34.125 32.3693 33.5369 32.7997 33.2301 33.4773H33.1449V30.2727H32.1392V39H33.1449V35.0625ZM42.0756 32.4545H40.6779V30.8864H39.6722V32.4545H38.6836V33.3068H39.6722V37.3977C39.6722 38.5398 40.5927 39.0852 41.445 39.0852C41.82 39.0852 42.0586 39.017 42.195 38.9659L41.9904 38.0625C41.9052 38.0795 41.7688 38.1136 41.5472 38.1136C41.104 38.1136 40.6779 37.9773 40.6779 37.125V33.3068H42.0756V32.4545Z" fill="#161616"/>
</svg>
