<svg width="52" height="52" viewBox="0 0 52 52" fill="none" xmlns="http://www.w3.org/2000/svg">
<g clip-path="url(#clip0)">
<path d="M13.7597 25.8822C13.5442 25.8822 13.3376 25.9678 13.1852 26.1202C13.0328 26.2726 12.9472 26.4792 12.9472 26.6947V50.375H9.94098V35.3681C9.94098 35.1526 9.85538 34.946 9.703 34.7936C9.55063 34.6412 9.34397 34.5556 9.12848 34.5556C8.91299 34.5556 8.70633 34.6412 8.55395 34.7936C8.40158 34.946 8.31598 35.1526 8.31598 35.3681V50.375H5.30566V26.6947C5.30566 26.4792 5.22006 26.2726 5.06769 26.1202C4.91532 25.9678 4.70865 25.8822 4.49316 25.8822C4.27768 25.8822 4.07101 25.9678 3.91864 26.1202C3.76627 26.2726 3.68066 26.4792 3.68066 26.6947V51.1875C3.68066 51.403 3.76627 51.6097 3.91864 51.762C4.07101 51.9144 4.27768 52 4.49316 52H13.7597C13.9752 52 14.1819 51.9144 14.3343 51.762C14.4866 51.6097 14.5722 51.403 14.5722 51.1875V26.6947C14.5722 26.4792 14.4866 26.2726 14.3343 26.1202C14.1819 25.9678 13.9752 25.8822 13.7597 25.8822Z" fill="#161616"/>
<path d="M13.2478 19.9063C14.4107 18.8459 15.1159 17.375 15.2144 15.8044C15.313 14.2337 14.7971 12.6862 13.7759 11.4888C13.7475 11.4563 13.7191 11.4197 13.6906 11.3913C13.1188 10.7449 12.4163 10.2273 11.6294 9.87287C10.8426 9.51839 9.98941 9.33508 9.12641 9.33508C8.26341 9.33508 7.41025 9.51839 6.62341 9.87287C5.83657 10.2273 5.13399 10.7449 4.56219 11.3913C4.53572 11.4164 4.51127 11.4436 4.48907 11.4725C3.4634 12.6703 2.94377 14.2199 3.04005 15.7938C3.13634 17.3678 3.84099 18.8425 5.00501 19.9063C3.65962 19.9558 2.38595 20.5255 1.45233 21.4955C0.518717 22.4655 -0.00195635 23.76 5.52413e-06 25.1063V37.0013C5.52413e-06 37.2168 0.085608 37.4235 0.237981 37.5758C0.390355 37.7282 0.597017 37.8138 0.812506 37.8138C1.02799 37.8138 1.23466 37.7282 1.38703 37.5758C1.5394 37.4235 1.62501 37.2168 1.62501 37.0013V25.1063C1.62447 24.6374 1.71631 24.1729 1.89527 23.7395C2.07424 23.306 2.33682 22.912 2.66804 22.5801C2.99925 22.2481 3.39261 21.9846 3.82565 21.8047C4.25869 21.6247 4.72294 21.5318 5.19188 21.5313H5.95969L8.45813 25.1875C8.53274 25.2965 8.63278 25.3856 8.74958 25.4471C8.86637 25.5087 8.99641 25.5409 9.12844 25.5409C9.26047 25.5409 9.39051 25.5087 9.50731 25.4471C9.62411 25.3856 9.72414 25.2965 9.79876 25.1875L12.2931 21.5313H13.0609C14.0066 21.5324 14.9132 21.9085 15.5819 22.5772C16.2506 23.2459 16.6267 24.1525 16.6278 25.0982V37.0013C16.6278 37.2168 16.7134 37.4235 16.8658 37.5758C17.0182 37.7282 17.2248 37.8138 17.4403 37.8138C17.6558 37.8138 17.8625 37.7282 18.0148 37.5758C18.1672 37.4235 18.2528 37.2168 18.2528 37.0013V25.1063C18.2548 23.76 17.7341 22.4655 16.8005 21.4955C15.8669 20.5255 14.5932 19.9558 13.2478 19.9063ZM11.7284 11.7813C10.8941 12.0779 10.0139 12.2251 9.12844 12.216C8.24164 12.225 7.36017 12.0779 6.52438 11.7813C7.28077 11.232 8.1916 10.9361 9.12641 10.9361C10.0612 10.9361 10.9721 11.232 11.7284 11.7813ZM4.65563 15.4375C4.65417 14.5975 4.89234 13.7745 5.34219 13.065C6.52794 13.6147 7.82157 13.8923 9.12844 13.8775C10.434 13.8919 11.7262 13.6143 12.9106 13.065C13.3617 13.7741 13.6013 14.5971 13.6013 15.4375C13.6013 16.6227 13.1304 17.7594 12.2924 18.5974C11.4543 19.4355 10.3177 19.9063 9.13251 19.9063C7.94732 19.9063 6.81068 19.4355 5.97262 18.5974C5.13457 17.7594 4.66376 16.6227 4.66376 15.4375H4.65563ZM9.12438 23.2782L7.93001 21.5313H10.3228L9.12438 23.2782Z" fill="#161616"/>
<path d="M47.4987 25.8416C47.2832 25.8416 47.0766 25.9272 46.9242 26.0795C46.7718 26.2319 46.6862 26.4386 46.6862 26.6541V50.375H43.6718V35.3437C43.6718 35.1283 43.5862 34.9216 43.4339 34.7692C43.2815 34.6168 43.0748 34.5312 42.8593 34.5312C42.6439 34.5312 42.4372 34.6168 42.2848 34.7692C42.1324 34.9216 42.0468 35.1283 42.0468 35.3437V50.375H39.0325V26.6541C39.0325 26.4386 38.9469 26.2319 38.7945 26.0795C38.6421 25.9272 38.4355 25.8416 38.22 25.8416C38.0045 25.8416 37.7978 25.9272 37.6454 26.0795C37.4931 26.2319 37.4075 26.4386 37.4075 26.6541V51.1875C37.4075 51.403 37.4931 51.6096 37.6454 51.762C37.7978 51.9144 38.0045 52 38.22 52H47.4987C47.7142 52 47.9209 51.9144 48.0732 51.762C48.2256 51.6096 48.3112 51.403 48.3112 51.1875V26.6541C48.3112 26.4386 48.2256 26.2319 48.0732 26.0795C47.9209 25.9272 47.7142 25.8416 47.4987 25.8416Z" fill="#161616"/>
<path d="M46.9828 19.8738C48.147 18.8117 48.8544 17.3399 48.9567 15.7674C49.0589 14.1949 48.5481 12.6439 47.5312 11.44L47.4459 11.3425C46.8741 10.6941 46.1708 10.1748 45.3828 9.81909C44.5948 9.46338 43.7402 9.27942 42.8756 9.27942C42.0111 9.27942 41.1564 9.46338 40.3684 9.81909C39.5804 10.1748 38.8772 10.6941 38.3053 11.3425C38.2765 11.3681 38.2506 11.3967 38.2281 11.4278C37.2059 12.6292 36.6893 14.1801 36.787 15.7545C36.8848 17.3289 37.5892 18.804 38.7522 19.8697C37.4028 19.913 36.1232 20.4793 35.1839 21.449C34.2445 22.4186 33.7191 23.7156 33.7188 25.0657V36.9688C33.7188 37.1843 33.8044 37.3909 33.9567 37.5433C34.1091 37.6957 34.3158 37.7813 34.5312 37.7813C34.7467 37.7813 34.9534 37.6957 35.1058 37.5433C35.2581 37.3909 35.3438 37.1843 35.3438 36.9688V25.0657C35.3448 24.1178 35.7218 23.2091 36.392 22.5389C37.0622 21.8687 37.9709 21.4917 38.9188 21.4907H39.6906L42.1891 25.1469C42.2637 25.2558 42.3637 25.3449 42.4805 25.4065C42.5973 25.4681 42.7273 25.5002 42.8594 25.5002C42.9914 25.5002 43.1214 25.4681 43.2382 25.4065C43.355 25.3449 43.4551 25.2558 43.5297 25.1469L46.0281 21.4907H46.8C47.7478 21.4917 48.6565 21.8687 49.3267 22.5389C49.9969 23.2091 50.3739 24.1178 50.375 25.0657V36.9688C50.375 37.1843 50.4606 37.3909 50.613 37.5433C50.7653 37.6957 50.972 37.7813 51.1875 37.7813C51.403 37.7813 51.6097 37.6957 51.762 37.5433C51.9144 37.3909 52 37.1843 52 36.9688V25.0657C51.9987 23.719 51.4751 22.4254 50.5393 21.4571C49.6035 20.4887 48.3286 19.9211 46.9828 19.8738ZM45.4716 11.7488C43.7802 12.3392 41.9386 12.3392 40.2472 11.7488C41.0079 11.2007 41.9218 10.9058 42.8594 10.9058C43.797 10.9058 44.7108 11.2007 45.4716 11.7488ZM38.3784 15.405C38.3736 14.5538 38.6133 13.719 39.0691 13C40.2616 13.5329 41.5532 13.8083 42.8594 13.8083C44.1656 13.8083 45.4571 13.5329 46.6497 13C47.012 13.587 47.2335 14.2498 47.2969 14.9367C47.3603 15.6235 47.2638 16.3157 47.0151 16.9591C46.7663 17.6024 46.372 18.1795 45.863 18.645C45.354 19.1105 44.7441 19.4519 44.0812 19.6423C43.4182 19.8328 42.7202 19.8673 42.0417 19.7429C41.3632 19.6186 40.7227 19.3389 40.1704 18.9258C39.618 18.5126 39.1688 17.9772 38.858 17.3614C38.5471 16.7457 38.3829 16.0664 38.3784 15.3766V15.405ZM42.8472 23.266L41.6284 21.515H44.0253L42.8472 23.266Z" fill="#161616"/>
<path d="M33.7513 12.151C33.8269 12.227 33.9167 12.2873 34.0157 12.3285C34.1148 12.3696 34.2209 12.3907 34.3281 12.3906C34.5433 12.3897 34.7493 12.3035 34.901 12.151L37.5416 9.51033C37.6929 9.3581 37.7778 9.15217 37.7778 8.93752C37.7778 8.72286 37.6929 8.51693 37.5416 8.3647L34.901 5.72408C34.7466 5.58375 34.5443 5.50815 34.3358 5.51291C34.1272 5.51767 33.9286 5.60244 33.7808 5.74966C33.6331 5.89688 33.5476 6.09527 33.5421 6.30377C33.5366 6.51227 33.6115 6.7149 33.7513 6.8697L35.0066 8.12502H16.9935L18.2122 6.90627C18.352 6.75146 18.4269 6.54883 18.4214 6.34033C18.4159 6.13184 18.3304 5.93344 18.1827 5.78622C18.0349 5.639 17.8362 5.55423 17.6277 5.54947C17.4192 5.54471 17.2168 5.62032 17.0625 5.76064L14.4219 8.40127C14.3463 8.47672 14.2864 8.56633 14.2455 8.66497C14.2046 8.76361 14.1836 8.86933 14.1836 8.97611C14.1836 9.08288 14.2046 9.18861 14.2455 9.28725C14.2864 9.38588 14.3463 9.47549 14.4219 9.55095L17.0625 12.1875C17.138 12.263 17.2276 12.3229 17.3263 12.3637C17.4249 12.4046 17.5306 12.4256 17.6374 12.4256C17.7441 12.4256 17.8498 12.4046 17.9485 12.3637C18.0471 12.3229 18.1367 12.263 18.2122 12.1875C18.2877 12.112 18.3476 12.0224 18.3884 11.9238C18.4293 11.8251 18.4503 11.7194 18.4503 11.6127C18.4503 11.5059 18.4293 11.4002 18.3884 11.3016C18.3476 11.2029 18.2877 11.1133 18.2122 11.0378L16.9163 9.75002H35.0066L33.7513 11.0053C33.5999 11.1576 33.515 11.3635 33.515 11.5781C33.515 11.7928 33.5999 11.9987 33.7513 12.151Z" fill="#161616"/>
</g>
<defs>
<clipPath id="clip0">
<rect width="52" height="52" fill="white"/>
</clipPath>
</defs>
</svg>
