<svg width="52" height="52" viewBox="0 0 52 52" fill="none" xmlns="http://www.w3.org/2000/svg">
<g clip-path="url(#clip0)">
<path d="M45.9062 15.4375C46.445 15.4375 46.9616 15.6515 47.3426 16.0324C47.7235 16.4134 47.9375 16.93 47.9375 17.4688C47.9375 18.0075 47.7235 18.5241 47.3426 18.9051C46.9616 19.286 46.445 19.5 45.9062 19.5H23.5625C23.347 19.5 23.1403 19.5856 22.988 19.738C22.8356 19.8903 22.75 20.097 22.75 20.3125C22.75 20.528 22.8356 20.7347 22.988 20.887C23.1403 21.0394 23.347 21.125 23.5625 21.125H45.9062C46.8759 21.125 47.8059 20.7398 48.4916 20.0541C49.1773 19.3684 49.5625 18.4384 49.5625 17.4688C49.5625 16.4991 49.1773 15.5691 48.4916 14.8834C47.8059 14.1977 46.8759 13.8125 45.9062 13.8125C45.6908 13.8125 45.4841 13.8981 45.3317 14.0505C45.1794 14.2028 45.0938 14.4095 45.0938 14.625C45.0938 14.8405 45.1794 15.0472 45.3317 15.1995C45.4841 15.3519 45.6908 15.4375 45.9062 15.4375Z" fill="#161616"/>
<path d="M47.8847 27.166H21.9375C21.722 27.166 21.5153 27.2516 21.363 27.404C21.2106 27.5564 21.125 27.763 21.125 27.9785C21.125 28.194 21.2106 28.4007 21.363 28.553C21.5153 28.7054 21.722 28.791 21.9375 28.791H47.8847C48.5452 28.791 49.1786 29.0534 49.6456 29.5204C50.1126 29.9874 50.375 30.6209 50.375 31.2813C50.375 31.9418 50.1126 32.5752 49.6456 33.0422C49.1786 33.5093 48.5452 33.7716 47.8847 33.7716C47.6692 33.7716 47.4625 33.8572 47.3102 34.0096C47.1578 34.162 47.0722 34.3686 47.0722 34.5841C47.0722 34.7996 47.1578 35.0063 47.3102 35.1587C47.4625 35.311 47.6692 35.3966 47.8847 35.3966C48.9761 35.3966 50.0229 34.9631 50.7947 34.1913C51.5664 33.4195 52 32.3728 52 31.2813C52 30.1899 51.5664 29.1431 50.7947 28.3714C50.0229 27.5996 48.9761 27.166 47.8847 27.166Z" fill="#161616"/>
<path d="M28.8438 23.5625C28.6283 23.5625 28.4216 23.6481 28.2692 23.8005C28.1169 23.9528 28.0312 24.1595 28.0312 24.375C28.0312 24.5905 28.1169 24.7972 28.2692 24.9495C28.4216 25.1019 28.6283 25.1875 28.8438 25.1875H43.875C44.0905 25.1875 44.2972 25.1019 44.4495 24.9495C44.6019 24.7972 44.6875 24.5905 44.6875 24.375C44.6875 24.1595 44.6019 23.9528 44.4495 23.8005C44.2972 23.6481 44.0905 23.5625 43.875 23.5625H28.8438Z" fill="#161616"/>
<path d="M38.5938 30.875H25.5938C25.3783 30.875 25.1716 30.9606 25.0192 31.113C24.8669 31.2653 24.7812 31.472 24.7812 31.6875C24.7812 31.903 24.8669 32.1097 25.0192 32.262C25.1716 32.4144 25.3783 32.5 25.5938 32.5H38.5938C38.8092 32.5 39.0159 32.4144 39.1683 32.262C39.3206 32.1097 39.4062 31.903 39.4062 31.6875C39.4062 31.472 39.3206 31.2653 39.1683 31.113C39.0159 30.9606 38.8092 30.875 38.5938 30.875Z" fill="#161616"/>
<path d="M37.7812 42.2493H34.9375V34.9368C34.9375 34.7213 34.8519 34.5147 34.6995 34.3623C34.5472 34.2099 34.3405 34.1243 34.125 34.1243C33.9095 34.1243 33.7028 34.2099 33.5505 34.3623C33.3981 34.5147 33.3125 34.7213 33.3125 34.9368V42.2493H16.6562V9.74931H33.3125V17.0618C33.3125 17.2773 33.3981 17.484 33.5505 17.6363C33.7028 17.7887 33.9095 17.8743 34.125 17.8743C34.3405 17.8743 34.5472 17.7887 34.6995 17.6363C34.8519 17.484 34.9375 17.2773 34.9375 17.0618V8.93681C34.9375 8.72132 34.8519 8.51466 34.6995 8.36229C34.5472 8.20991 34.3405 8.12431 34.125 8.12431H16.0956L4.52563 0.141499C4.40355 0.0568131 4.2606 0.00721907 4.11231 -0.00188936C3.96402 -0.0109978 3.81607 0.0207281 3.68455 0.0898379C3.55303 0.158948 3.44298 0.262796 3.36636 0.390088C3.28975 0.51738 3.2495 0.663242 3.25 0.811812V25.1868H0.8125C0.597012 25.1868 0.390349 25.2724 0.237976 25.4248C0.0856024 25.5772 0 25.7838 0 25.9993L0 30.4681C0 30.6836 0.0856024 30.8902 0.237976 31.0426C0.390349 31.195 0.597012 31.2806 0.8125 31.2806C1.02799 31.2806 1.23465 31.195 1.38702 31.0426C1.5394 30.8902 1.625 30.6836 1.625 30.4681V26.8118H3.25V51.1868C3.25005 51.3349 3.29056 51.4802 3.36718 51.6069C3.44379 51.7336 3.55358 51.837 3.68469 51.9059C3.81593 51.9754 3.96371 52.0076 4.11197 51.999C4.26023 51.9904 4.4033 51.9413 4.52563 51.8571L16.0956 43.8743H37.7812C37.9967 43.8743 38.2034 43.7887 38.3558 43.6363C38.5081 43.484 38.5938 43.2773 38.5938 43.0618C38.5938 42.8463 38.5081 42.6397 38.3558 42.4873C38.2034 42.3349 37.9967 42.2493 37.7812 42.2493ZM4.875 2.35962L15.0312 9.36337V42.6556L4.875 49.639V2.35962Z" fill="#161616"/>
</g>
<defs>
<clipPath id="clip0">
<rect width="52" height="52" fill="white"/>
</clipPath>
</defs>
</svg>
