<svg width="52" height="52" viewBox="0 0 52 52" fill="none" xmlns="http://www.w3.org/2000/svg">
<g clip-path="url(#clip0)">
<path d="M51.6994 44.3746C51.4204 43.963 51.0453 43.6256 50.6066 43.3914C50.7251 43.2173 50.8181 43.0272 50.8829 42.8268C51.3866 41.2586 50.1394 40.4502 49.2254 39.8611L49.0263 39.7352C47.9118 39.1529 46.7642 38.636 45.5894 38.1874C45.9253 37.8628 46.1391 37.4324 46.1947 36.9686C46.2234 36.6147 46.1763 36.2588 46.0566 35.9246C46.4696 35.7418 46.833 35.4632 47.1169 35.1121C47.3272 34.8393 47.4783 34.5259 47.5609 34.1916C47.6434 33.8572 47.6555 33.5094 47.5963 33.1702C47.5624 32.9148 47.4765 32.669 47.3437 32.4482C47.2109 32.2273 47.0342 32.0361 46.8244 31.8864C46.4151 31.6039 45.9417 31.428 45.4472 31.3746C45.4959 31.1712 45.5137 30.9617 45.5001 30.753C45.3944 29.128 43.936 28.8152 42.8676 28.6039L42.6401 28.5552C41.8276 28.3927 37.6188 28.3643 36.2416 28.3805L36.5341 28.0839C37.7813 26.8124 38.3054 25.1874 37.9032 23.7655C37.8267 23.3848 37.6524 23.0306 37.3974 22.7378C37.1423 22.445 36.8154 22.2238 36.4488 22.0958C35.096 21.7586 33.8732 23.0099 33.0647 23.8346C32.9104 23.993 32.6991 24.2083 32.6219 24.2652C32.4391 24.3749 31.9679 24.6714 31.0822 25.2768C29.571 26.2802 27.3326 27.7711 25.9066 28.6364C24.7122 28.6364 23.3838 28.5999 22.6322 28.5877L22.0351 28.4374C23.0791 27.3405 24.6594 25.5286 25.5491 23.7858C26.3616 22.1893 26.3616 20.4952 25.5491 19.2521C25.3599 18.9134 25.0859 18.6298 24.754 18.429C24.4221 18.2281 24.0438 18.117 23.656 18.1064C22.3722 18.1877 21.3566 19.5527 20.4304 20.9502C20.3126 21.1289 20.1663 21.3564 20.1297 21.393C20.0119 21.5068 19.4351 21.9171 18.911 22.2786C17.4688 23.3064 15.2994 24.8624 14.1376 26.1827C13.7516 26.6174 12.3338 28.1652 11.0826 29.5343C10.0669 30.6433 9.18943 31.6021 8.99037 31.8255C8.7913 32.0489 8.4013 32.4552 7.97474 32.8899C7.48724 33.3936 6.98349 33.9136 6.66662 34.2671C6.12224 34.6043 3.16068 35.2502 0.678491 35.6646C0.569071 35.6773 0.463373 35.7121 0.367822 35.7669C0.272271 35.8217 0.188863 35.8953 0.122666 35.9834C0.0564695 36.0714 0.00886709 36.172 -0.017248 36.279C-0.043363 36.386 -0.0474453 36.4973 -0.0292467 36.6059C-0.0110481 36.7145 0.0290513 36.8183 0.0886144 36.911C0.148178 37.0037 0.22596 37.0832 0.317235 37.1449C0.408511 37.2066 0.511372 37.249 0.619567 37.2697C0.727763 37.2904 0.839033 37.2889 0.946616 37.2652C5.00912 36.5868 7.34505 35.953 7.85287 35.3802C8.1413 35.0552 8.66537 34.5068 9.14474 34.0233C9.62412 33.5399 9.99787 33.1458 10.2132 32.898C10.4285 32.6502 11.3182 31.6793 12.2851 30.6311C13.5404 29.258 14.9663 27.7021 15.3604 27.2552C16.4004 26.0771 18.4885 24.5861 19.8697 23.5989C20.3885 23.2664 20.8778 22.8899 21.3322 22.4736C21.4934 22.2741 21.6426 22.0652 21.7791 21.848C22.1244 21.3321 23.1644 19.7639 23.7332 19.7274C23.9892 19.8519 24.1893 20.0679 24.2938 20.3327C24.4726 20.6861 24.8138 21.6611 24.1069 23.0464C23.0994 25.0208 20.991 27.2064 20.2069 27.9864C18.7891 27.6818 17.8507 27.7427 17.4201 28.1855C17.2799 28.3277 17.197 28.5166 17.1873 28.7161C17.1775 28.9155 17.2416 29.1116 17.3672 29.2668C17.4928 29.422 17.6711 29.5256 17.8682 29.5577C18.0653 29.5898 18.2673 29.5482 18.4357 29.4408C18.5454 29.4408 19.0329 29.3555 20.2557 29.6643L22.3235 30.1843C22.3831 30.2003 22.4446 30.2085 22.5063 30.2086C23.0263 30.2086 27.6088 30.3102 28.4538 30.2533C28.9007 30.2249 30.9685 30.168 32.7926 30.1152L34.1657 30.0746H34.2307C34.2739 30.0786 34.3174 30.0786 34.3607 30.0746L35.9491 30.0218C36.6276 29.9771 41.7097 30.0218 42.311 30.1558L42.5507 30.2046C43.7004 30.4361 43.8588 30.5458 43.8791 30.8627C43.8817 30.9708 43.8574 31.0778 43.8085 31.1742C43.7596 31.2707 43.6876 31.3534 43.5988 31.4152L27.2188 33.3124C27.0033 33.3248 26.8016 33.4223 26.658 33.5834C26.5144 33.7445 26.4406 33.9561 26.453 34.1716C26.4654 34.3871 26.5629 34.5888 26.724 34.7324C26.8852 34.8761 27.0968 34.9498 27.3122 34.9374H27.4057L43.9807 32.9996H44.0172C44.4235 32.9346 45.4635 32.8939 45.8779 33.1986C45.9129 33.2226 45.9424 33.2539 45.9641 33.2904C45.9859 33.3269 45.9994 33.3676 46.0038 33.4099C46.0325 33.5294 46.035 33.6538 46.0112 33.7744C45.9873 33.895 45.9377 34.009 45.8657 34.1086C45.5415 34.4153 45.1238 34.6041 44.6794 34.6449H44.6063L27.7957 37.6024C27.5802 37.6212 27.381 37.7249 27.242 37.8906C27.1029 38.0563 27.0354 38.2705 27.0543 38.486C27.0731 38.7015 27.1768 38.9006 27.3425 39.0397C27.5082 39.1787 27.7224 39.2462 27.9379 39.2274H28.0801L44.4601 36.3471C44.5499 36.4989 44.5897 36.6751 44.5738 36.8508C44.5494 36.9646 44.1676 37.5252 42.8107 37.9843C41.3888 38.4677 38.7482 39.0771 38.6385 39.1096L26.5526 41.7177C26.4459 41.7289 26.3424 41.761 26.2481 41.8122C26.1538 41.8634 26.0705 41.9326 26.003 42.016C25.9355 42.0994 25.885 42.1952 25.8546 42.2981C25.8241 42.4009 25.8142 42.5088 25.8254 42.6155C25.8366 42.7222 25.8687 42.8257 25.9199 42.9199C25.971 43.0142 26.0403 43.0975 26.1237 43.165C26.207 43.2326 26.3029 43.283 26.4058 43.3135C26.5086 43.344 26.6165 43.3539 26.7232 43.3427C26.7813 43.3485 26.8398 43.3485 26.8979 43.3427L38.8863 40.7549C38.952 40.7598 39.014 40.7871 39.0621 40.8322C39.1101 40.8773 39.1413 40.9374 39.1504 41.0027C39.2235 41.3033 38.6466 41.6771 38.0413 41.8599C37.7366 41.9533 37.1679 42.1686 36.4488 42.4408C35.7947 42.6886 34.9538 43.0055 34.1413 43.2939C34.0852 43.3068 34.0307 43.3259 33.9788 43.3508C33.2113 43.6498 32.4168 43.8743 31.6063 44.0211C30.6516 44.078 29.2501 44.6102 27.6291 45.2399C26.7882 45.5608 25.9188 45.8899 25.1022 46.1539C23.8578 46.5192 22.592 46.8068 21.3119 47.0152H21.2144C18.7119 47.4499 15.9332 47.7546 14.5641 47.6286C11.9966 47.393 10.526 47.6286 6.7113 48.8474C2.55943 50.1149 0.719116 50.3749 0.702866 50.3749C0.487378 50.3894 0.286493 50.489 0.144405 50.6516C0.00231705 50.8143 -0.0693357 51.0267 -0.0547902 51.2422C-0.0402447 51.4577 0.0593074 51.6586 0.221966 51.8007C0.384624 51.9428 0.597065 52.0144 0.812554 51.9999H0.922241C0.999429 51.9999 2.89255 51.7196 7.21099 50.3383C11.0094 49.1196 12.2241 48.9896 14.4138 49.1968C15.921 49.3349 18.7363 49.0261 21.2713 48.5955C22.8361 49.2612 24.4716 49.7464 26.1463 50.0418C26.9263 50.2083 27.6616 50.3668 28.3766 50.5577C31.1879 51.3093 39.6582 51.9836 39.7516 51.9918C39.8451 51.9999 40.0279 51.9918 40.1579 51.9918C41.6488 51.9918 42.6807 51.3052 42.831 50.1799C42.8457 50.0817 42.8525 49.9826 42.8513 49.8833C43.7532 50.0011 44.8419 50.1189 45.6504 50.1596C47.446 50.2408 48.7947 49.7533 49.2335 48.8555C49.3925 48.537 49.4799 48.1876 49.4894 47.8318C49.9398 47.817 50.38 47.6944 50.7732 47.4743C51.0687 47.299 51.3244 47.0639 51.5238 46.7841C51.7232 46.5042 51.8619 46.1858 51.931 45.8493C51.9951 45.6007 52.0076 45.3416 51.9678 45.088C51.9279 44.8343 51.8366 44.5916 51.6994 44.3746ZM32.7397 28.4902L28.9901 28.6039C30.0382 27.9214 31.1229 27.1983 31.976 26.6296C32.691 26.1543 33.3126 25.7439 33.4629 25.6546C33.743 25.4605 33.9982 25.2327 34.2226 24.9761C34.6288 24.5699 35.5916 23.5868 36.0385 23.6721C36.2392 23.8703 36.3618 24.1343 36.3838 24.4155C36.4447 24.8218 36.4732 25.8374 35.3763 26.9424C34.6004 27.7264 34.1576 28.1611 33.9301 28.413C33.9162 28.4289 33.9013 28.4438 33.8854 28.4577L32.7397 28.4902ZM43.3347 39.4955C43.546 39.4224 43.741 39.3452 43.936 39.2639C44.9232 39.6377 47.6451 40.7711 48.1366 41.0921L48.3438 41.2261C49.3269 41.8639 49.4326 42.0386 49.3351 42.3271C49.2981 42.4282 49.2363 42.5184 49.1554 42.5894C49.0745 42.6604 48.977 42.7099 48.8719 42.7333L40.7469 40.5721C40.745 40.5641 40.745 40.5557 40.7469 40.5477C40.7226 40.4513 40.6928 40.3563 40.6576 40.2633C41.5188 40.0439 42.571 39.7555 43.3347 39.4955ZM39.8897 50.3749C37.7163 50.2043 31.0213 49.5624 28.8154 48.9936C28.0597 48.7905 27.2716 48.6199 26.5079 48.4574C25.7441 48.2949 25.086 48.1486 24.3872 47.9699C24.8544 47.8561 25.2688 47.7424 25.606 47.6327C26.1341 47.4621 26.6704 47.2671 27.2107 47.068L41.0801 49.6558C41.1414 49.6827 41.1912 49.7306 41.2202 49.791C41.2493 49.8514 41.2558 49.9201 41.2385 49.9849C41.1938 50.2814 40.5154 50.4114 39.8897 50.3749ZM47.7913 48.1486C47.7263 48.2461 47.1494 48.6199 45.7357 48.5549C44.2447 48.4858 41.6041 48.0918 41.4457 48.0674L30.1885 45.9711C30.6788 45.7873 31.1886 45.6606 31.7079 45.5933C32.6269 45.456 33.5276 45.2161 34.3932 44.8783L47.8685 47.6408C47.8957 47.81 47.8687 47.9835 47.7913 48.1364V48.1486ZM50.3629 45.4877C50.3438 45.6112 50.2974 45.7288 50.2271 45.8321C50.1568 45.9354 50.0644 46.0218 49.9566 46.0849C49.5427 46.251 49.0851 46.2739 48.6566 46.1499H48.6322H48.5876L37.2694 43.8302C37.8179 43.6189 38.2769 43.4483 38.4882 43.3833C39.2187 43.1909 39.8708 42.7746 40.3529 42.193L48.5997 44.3868H48.6322C49.0385 44.4802 50.0176 44.8214 50.2897 45.2602C50.3192 45.2874 50.3421 45.3209 50.3568 45.3582C50.3716 45.3954 50.3778 45.4355 50.3751 45.4755L50.3629 45.4877Z" fill="#161616"/>
<path d="M31.2812 5.6875H51.1875C51.403 5.6875 51.6097 5.6019 51.762 5.44952C51.9144 5.29715 52 5.09049 52 4.875V3.65625C52 3.44076 51.9144 3.2341 51.762 3.08173C51.6097 2.92935 51.403 2.84375 51.1875 2.84375C50.972 2.84375 50.7653 2.92935 50.613 3.08173C50.4606 3.2341 50.375 3.44076 50.375 3.65625V4.0625H48.3438V0.8125C48.3438 0.597012 48.2581 0.390349 48.1058 0.237976C47.9534 0.0856024 47.7467 0 47.5312 0L34.6734 0C34.4579 0 34.2513 0.0856024 34.0989 0.237976C33.9465 0.390349 33.8609 0.597012 33.8609 0.8125C33.8609 1.02799 33.9465 1.23465 34.0989 1.38702C34.2513 1.5394 34.4579 1.625 34.6734 1.625H41.8438V4.0625H31.2812C29.7456 4.0625 28.0312 5.2325 28.0312 6.90625V10.9688C28.0312 11.1842 28.1169 11.3909 28.2692 11.5433C28.4216 11.6956 28.6283 11.7812 28.8438 11.7812H35.3438C35.5592 11.7812 35.7659 11.6956 35.9183 11.5433C36.0706 11.3909 36.1562 11.1842 36.1562 10.9688V9.75H50.375V10.1562C50.375 10.3717 50.4606 10.5784 50.613 10.7308C50.7653 10.8831 50.972 10.9688 51.1875 10.9688C51.403 10.9688 51.6097 10.8831 51.762 10.7308C51.9144 10.5784 52 10.3717 52 10.1562V8.9375C52 8.72201 51.9144 8.51535 51.762 8.36298C51.6097 8.2106 51.403 8.125 51.1875 8.125H35.3438C35.1283 8.125 34.9216 8.2106 34.7692 8.36298C34.6169 8.51535 34.5312 8.72201 34.5312 8.9375V10.1562H29.6562V6.90625C29.6562 6.24813 30.55 5.6875 31.2812 5.6875ZM43.4688 1.625H46.7188V4.0625H43.4688V1.625Z" fill="#161616"/>
<path d="M28.8438 13.4062C28.6283 13.4062 28.4216 13.4919 28.2692 13.6442C28.1169 13.7966 28.0312 14.0033 28.0312 14.2188V23.9688C28.0312 24.1842 28.1169 24.3909 28.2692 24.5433C28.4216 24.6956 28.6283 24.7812 28.8438 24.7812C29.0592 24.7812 29.2659 24.6956 29.4183 24.5433C29.5706 24.3909 29.6562 24.1842 29.6562 23.9688V14.2188C29.6562 14.0033 29.5706 13.7966 29.4183 13.6442C29.2659 13.4919 29.0592 13.4062 28.8438 13.4062Z" fill="#161616"/>
<path d="M32.0938 13.4062C31.8783 13.4062 31.6716 13.4919 31.5192 13.6442C31.3669 13.7966 31.2812 14.0033 31.2812 14.2188V21.5312C31.2812 21.7467 31.3669 21.9534 31.5192 22.1058C31.6716 22.2581 31.8783 22.3438 32.0938 22.3438C32.3092 22.3438 32.5159 22.2581 32.6683 22.1058C32.8206 21.9534 32.9062 21.7467 32.9062 21.5312V14.2188C32.9062 14.0033 32.8206 13.7966 32.6683 13.6442C32.5159 13.4919 32.3092 13.4062 32.0938 13.4062Z" fill="#161616"/>
<path d="M35.3438 13.4062C35.1283 13.4062 34.9216 13.4919 34.7692 13.6442C34.6169 13.7966 34.5312 14.0033 34.5312 14.2188V19.9062C34.5312 20.1217 34.6169 20.3284 34.7692 20.4808C34.9216 20.6331 35.1283 20.7188 35.3438 20.7188C35.5592 20.7188 35.7659 20.6331 35.9183 20.4808C36.0706 20.3284 36.1562 20.1217 36.1562 19.9062V14.2188C36.1562 14.0033 36.0706 13.7966 35.9183 13.6442C35.7659 13.4919 35.5592 13.4062 35.3438 13.4062Z" fill="#161616"/>
</g>
<defs>
<clipPath id="clip0">
<rect width="52" height="52" fill="white"/>
</clipPath>
</defs>
</svg>
