<svg width="197" height="80" viewBox="0 0 197 80" fill="none" xmlns="http://www.w3.org/2000/svg">
<path d="M109.975 33.003C107.108 33.003 104.629 32.3867 102.536 31.154C100.443 29.8927 98.8237 28.101 97.677 25.779C96.559 23.4283 96 20.662 96 17.48C96 14.3267 96.559 11.589 97.677 9.267C98.8237 6.91633 100.443 5.12467 102.536 3.892C104.629 2.63067 107.108 2 109.975 2C111.896 2 113.702 2.31533 115.393 2.946C117.113 3.548 118.604 4.42233 119.865 5.569C120.324 5.999 120.553 6.50067 120.553 7.074C120.553 7.47533 120.438 7.83367 120.209 8.149C119.98 8.43567 119.707 8.579 119.392 8.579C119.048 8.579 118.632 8.42134 118.145 8.106C116.683 6.95934 115.35 6.15667 114.146 5.698C112.971 5.23934 111.609 5.01 110.061 5.01C106.736 5.01 104.17 6.09933 102.364 8.278C100.587 10.428 99.698 13.4953 99.698 17.48C99.698 21.4933 100.587 24.5893 102.364 26.768C104.17 28.918 106.736 29.993 110.061 29.993C111.58 29.993 112.942 29.7637 114.146 29.305C115.35 28.8463 116.683 28.0437 118.145 26.897C118.632 26.5817 119.048 26.424 119.392 26.424C119.707 26.424 119.98 26.5673 120.209 26.854C120.438 27.1407 120.553 27.499 120.553 27.929C120.553 28.5023 120.324 29.004 119.865 29.434C118.604 30.5807 117.113 31.4693 115.393 32.1C113.702 32.702 111.896 33.003 109.975 33.003Z" fill="#002E62"/>
<path d="M138.442 33.003C135.632 33.003 133.181 32.3723 131.089 31.111C129.025 29.8497 127.434 28.058 126.316 25.736C125.198 23.414 124.639 20.6763 124.639 17.523C124.639 14.341 125.183 11.589 126.273 9.267C127.391 6.91633 128.982 5.12467 131.046 3.892C133.138 2.63067 135.604 2 138.442 2C141.28 2 143.731 2.63067 145.795 3.892C147.887 5.12467 149.478 6.91633 150.568 9.267C151.686 11.589 152.245 14.3267 152.245 17.48C152.245 20.6333 151.686 23.3853 150.568 25.736C149.45 28.058 147.844 29.8497 145.752 31.111C143.688 32.3723 141.251 33.003 138.442 33.003ZM138.442 29.993C141.652 29.993 144.146 28.918 145.924 26.768C147.73 24.5893 148.633 21.4933 148.633 17.48C148.633 13.4667 147.744 10.385 145.967 8.235C144.189 6.085 141.681 5.01 138.442 5.01C135.231 5.01 132.723 6.09933 130.917 8.278C129.139 10.428 128.251 13.4953 128.251 17.48C128.251 21.4647 129.139 24.5463 130.917 26.725C132.723 28.9037 135.231 29.993 138.442 29.993Z" fill="#002E62"/>
<path d="M180.154 3.032C180.297 2.71667 180.498 2.473 180.756 2.301C181.042 2.129 181.343 2.043 181.659 2.043C182.117 2.043 182.519 2.20067 182.863 2.516C183.235 2.80267 183.422 3.161 183.422 3.591C183.422 3.82033 183.364 4.04967 183.25 4.279L170.909 31.713C170.737 32.0857 170.479 32.3723 170.135 32.573C169.791 32.7737 169.418 32.874 169.017 32.874C168.615 32.874 168.243 32.7737 167.899 32.573C167.555 32.3723 167.297 32.0857 167.125 31.713L154.827 4.279C154.741 4.04967 154.698 3.83467 154.698 3.634C154.698 3.17533 154.884 2.80267 155.257 2.516C155.629 2.20067 156.045 2.043 156.504 2.043C157.192 2.043 157.693 2.37267 158.009 3.032L169.103 28.101L180.154 3.032Z" fill="#002E62"/>
<path d="M126.969 43.607C129.742 43.607 131.857 44.439 133.313 46.103C134.804 47.7323 135.549 50.3843 135.549 54.059V66.851C135.549 67.8563 135.237 68.6363 134.613 69.191C134.024 69.711 133.244 69.971 132.273 69.971C131.337 69.971 130.557 69.711 129.933 69.191C129.344 68.6363 129.049 67.8563 129.049 66.851V54.059C129.049 52.1523 128.702 50.8003 128.009 50.003C127.35 49.171 126.328 48.755 124.941 48.755C123.242 48.755 121.89 49.3443 120.885 50.523C119.88 51.667 119.377 53.2443 119.377 55.255V66.851C119.377 67.8563 119.065 68.6363 118.441 69.191C117.852 69.711 117.089 69.971 116.153 69.971C115.217 69.971 114.437 69.711 113.813 69.191C113.189 68.6363 112.877 67.8563 112.877 66.851V54.059C112.877 52.1523 112.53 50.8003 111.837 50.003C111.178 49.171 110.156 48.755 108.769 48.755C107.07 48.755 105.718 49.3443 104.713 50.523C103.742 51.667 103.257 53.2443 103.257 55.255V66.851C103.257 67.8563 102.945 68.6363 102.321 69.191C101.697 69.711 100.917 69.971 99.981 69.971C99.045 69.971 98.265 69.711 97.641 69.191C97.0517 68.6363 96.757 67.8563 96.757 66.851V46.727C96.757 45.7563 97.069 45.011 97.693 44.491C98.317 43.971 99.097 43.711 100.033 43.711C100.934 43.711 101.662 43.971 102.217 44.491C102.806 44.9763 103.101 45.687 103.101 46.623V47.871C103.898 46.4843 104.956 45.427 106.273 44.699C107.625 43.971 109.168 43.607 110.901 43.607C114.714 43.607 117.262 45.2017 118.545 48.391C119.308 46.935 120.434 45.7737 121.925 44.907C123.416 44.0403 125.097 43.607 126.969 43.607Z" fill="#002E62"/>
<path d="M153.179 43.607C156.715 43.607 159.333 44.491 161.031 46.259C162.765 47.9923 163.631 50.6443 163.631 54.215V66.903C163.631 67.839 163.354 68.5843 162.799 69.139C162.245 69.659 161.482 69.919 160.511 69.919C159.61 69.919 158.865 69.6417 158.275 69.087C157.721 68.5323 157.443 67.8043 157.443 66.903V65.759C156.854 67.111 155.918 68.1683 154.635 68.931C153.387 69.6937 151.931 70.075 150.267 70.075C148.569 70.075 147.026 69.7283 145.639 69.035C144.253 68.3417 143.161 67.3883 142.363 66.175C141.566 64.9617 141.167 63.6097 141.167 62.119C141.167 60.247 141.635 58.7737 142.571 57.699C143.542 56.6243 145.102 55.8443 147.251 55.359C149.401 54.8737 152.365 54.631 156.143 54.631H157.443V53.435C157.443 51.7363 157.079 50.5057 156.351 49.743C155.623 48.9457 154.445 48.547 152.815 48.547C151.81 48.547 150.787 48.703 149.747 49.015C148.707 49.2923 147.477 49.7083 146.055 50.263C145.154 50.7137 144.495 50.939 144.079 50.939C143.455 50.939 142.935 50.7137 142.519 50.263C142.138 49.8123 141.947 49.223 141.947 48.495C141.947 47.9057 142.086 47.403 142.363 46.987C142.675 46.5363 143.178 46.1203 143.871 45.739C145.085 45.0803 146.523 44.5603 148.187 44.179C149.886 43.7977 151.55 43.607 153.179 43.607ZM151.567 65.395C153.301 65.395 154.705 64.823 155.779 63.679C156.889 62.5003 157.443 60.9923 157.443 59.155V58.063H156.507C154.185 58.063 152.382 58.167 151.099 58.375C149.817 58.583 148.898 58.947 148.343 59.467C147.789 59.987 147.511 60.6977 147.511 61.599C147.511 62.7083 147.893 63.627 148.655 64.355C149.453 65.0483 150.423 65.395 151.567 65.395Z" fill="#002E62"/>
<path d="M184.849 43.607C187.033 43.607 188.975 44.1617 190.673 45.271C192.407 46.3803 193.741 47.9577 194.677 50.003C195.648 52.0137 196.133 54.3363 196.133 56.971C196.133 59.6057 195.648 61.911 194.677 63.887C193.741 65.863 192.424 67.3883 190.725 68.463C189.027 69.5377 187.068 70.075 184.849 70.075C183.047 70.075 181.435 69.6937 180.013 68.931C178.592 68.1683 177.5 67.111 176.737 65.759V76.367C176.737 77.2683 176.443 77.979 175.853 78.499C175.264 79.019 174.484 79.279 173.513 79.279C172.543 79.279 171.745 79.0017 171.121 78.447C170.532 77.8923 170.237 77.1643 170.237 76.263V46.779C170.237 45.843 170.515 45.0977 171.069 44.543C171.659 43.9883 172.439 43.711 173.409 43.711C174.38 43.711 175.16 43.9883 175.749 44.543C176.339 45.0977 176.633 45.843 176.633 46.779V48.079C177.396 46.6577 178.488 45.5657 179.909 44.803C181.365 44.0057 183.012 43.607 184.849 43.607ZM183.133 65.031C185.179 65.031 186.773 64.3377 187.917 62.951C189.061 61.5297 189.633 59.5363 189.633 56.971C189.633 54.3363 189.061 52.291 187.917 50.835C186.773 49.379 185.179 48.651 183.133 48.651C181.053 48.651 179.441 49.3617 178.297 50.783C177.188 52.2043 176.633 54.2323 176.633 56.867C176.633 59.467 177.188 61.4777 178.297 62.899C179.441 64.3203 181.053 65.031 183.133 65.031Z" fill="#002E62"/>
<g clip-path="url(#clip0)">
<path d="M43.068 77.0189C46.592 77.0189 49.4488 74.1841 49.4488 70.6873C49.4488 67.1904 46.592 64.3557 43.068 64.3557C39.544 64.3557 36.6873 67.1904 36.6873 70.6873C36.6873 74.1841 39.544 77.0189 43.068 77.0189Z" fill="url(#paint0_linear)"/>
<path d="M43.068 59.0636C45.5611 59.0636 47.5821 57.0581 47.5821 54.5842C47.5821 52.1103 45.5611 50.1048 43.068 50.1048C40.5749 50.1048 38.5538 52.1103 38.5538 54.5842C38.5538 57.0581 40.5749 59.0636 43.068 59.0636Z" fill="url(#paint1_linear)"/>
<path d="M43.0679 46.2113C47.3598 46.2113 50.8391 42.7589 50.8391 38.5C50.8391 34.2411 47.3598 30.7887 43.0679 30.7887C38.776 30.7887 35.2968 34.2411 35.2968 38.5C35.2968 42.7589 38.776 46.2113 43.0679 46.2113Z" fill="url(#paint2_linear)"/>
<path d="M43.068 28.7474C46.592 28.7474 49.4488 25.9127 49.4488 22.4158C49.4488 18.919 46.592 16.0842 43.068 16.0842C39.544 16.0842 36.6873 18.919 36.6873 22.4158C36.6873 25.9127 39.544 28.7474 43.068 28.7474Z" fill="url(#paint3_linear)"/>
<path d="M43.068 12.6632C46.592 12.6632 49.4488 9.82847 49.4488 6.33162C49.4488 2.83476 46.592 0 43.068 0C39.544 0 36.6873 2.83476 36.6873 6.33162C36.6873 9.82847 39.544 12.6632 43.068 12.6632Z" fill="url(#paint4_linear)"/>
<path d="M28.0399 68.9674C31.3429 68.9674 34.0206 66.3103 34.0206 63.0327C34.0206 59.755 31.3429 57.0979 28.0399 57.0979C24.7368 57.0979 22.0591 59.755 22.0591 63.0327C22.0591 66.3103 24.7368 68.9674 28.0399 68.9674Z" fill="url(#paint5_linear)"/>
<path d="M28.0398 53.2801C31.5638 53.2801 34.4206 50.4453 34.4206 46.9485C34.4206 43.4516 31.5638 40.6168 28.0398 40.6168C24.5158 40.6168 21.6591 43.4516 21.6591 46.9485C21.6591 50.4453 24.5158 53.2801 28.0398 53.2801Z" fill="url(#paint6_linear)"/>
<path d="M28.0399 38.0653C32.0478 38.0653 35.2968 34.8413 35.2968 30.8643C35.2968 26.8872 32.0478 23.6632 28.0399 23.6632C24.032 23.6632 20.783 26.8872 20.783 30.8643C20.783 34.8413 24.032 38.0653 28.0399 38.0653Z" fill="url(#paint7_linear)"/>
<path d="M28.0398 19.5052C30.6802 19.5052 32.8206 17.3812 32.8206 14.7612C32.8206 12.1411 30.6802 10.0172 28.0398 10.0172C25.3995 10.0172 23.259 12.1411 23.259 14.7612C23.259 17.3812 25.3995 19.5052 28.0398 19.5052Z" fill="url(#paint8_linear)"/>
<path d="M13.6974 62.9003C18.105 62.9003 21.6781 59.3548 21.6781 54.9811C21.6781 50.6074 18.105 47.0619 13.6974 47.0619C9.28976 47.0619 5.71667 50.6074 5.71667 54.9811C5.71667 59.3548 9.28976 62.9003 13.6974 62.9003Z" fill="url(#paint9_linear)"/>
<path d="M13.6974 45.2285C17.2214 45.2285 20.0782 42.3938 20.0782 38.8969C20.0782 35.4001 17.2214 32.5653 13.6974 32.5653C10.1734 32.5653 7.31665 35.4001 7.31665 38.8969C7.31665 42.3938 10.1734 45.2285 13.6974 45.2285Z" fill="url(#paint10_linear)"/>
<path d="M13.6974 29.1443C17.2214 29.1443 20.0782 26.3096 20.0782 22.8127C20.0782 19.3159 17.2214 16.4811 13.6974 16.4811C10.1734 16.4811 7.31665 19.3159 7.31665 22.8127C7.31665 26.3096 10.1734 29.1443 13.6974 29.1443Z" fill="url(#paint11_linear)"/>
<path d="M56.4009 68.9674C59.9249 68.9674 62.7817 66.1326 62.7817 62.6357C62.7817 59.1389 59.9249 56.3041 56.4009 56.3041C52.8769 56.3041 50.0201 59.1389 50.0201 62.6357C50.0201 66.1326 52.8769 68.9674 56.4009 68.9674Z" fill="url(#paint12_linear)"/>
<path d="M56.4009 52.8832C59.9249 52.8832 62.7817 50.0484 62.7817 46.5515C62.7817 43.0547 59.9249 40.2199 56.4009 40.2199C52.8769 40.2199 50.0201 43.0547 50.0201 46.5515C50.0201 50.0484 52.8769 52.8832 56.4009 52.8832Z" fill="url(#paint13_linear)"/>
<path d="M56.4009 36.799C59.9249 36.799 62.7817 33.9642 62.7817 30.4674C62.7817 26.9705 59.9249 24.1357 56.4009 24.1357C52.8769 24.1357 50.0201 26.9705 50.0201 30.4674C50.0201 33.9642 52.8769 36.799 56.4009 36.799Z" fill="url(#paint14_linear)"/>
<path d="M69.716 63.5312C74.1972 63.5312 77.83 59.9264 77.83 55.4796C77.83 51.0329 74.1972 47.4281 69.716 47.4281C65.2347 47.4281 61.6019 51.0329 61.6019 55.4796C61.6019 59.9264 65.2347 63.5312 69.716 63.5312Z" fill="url(#paint15_linear)"/>
<path d="M70.6671 46.5515C74.1911 46.5515 77.0479 43.7168 77.0479 40.2199C77.0479 36.7231 74.1911 33.8883 70.6671 33.8883C67.1431 33.8883 64.2864 36.7231 64.2864 40.2199C64.2864 43.7168 67.1431 46.5515 70.6671 46.5515Z" fill="url(#paint16_linear)"/>
<path d="M70.6671 30.4674C74.1911 30.4674 77.0479 27.6326 77.0479 24.1357C77.0479 20.6389 74.1911 17.8041 70.6671 17.8041C67.1431 17.8041 64.2864 20.6389 64.2864 24.1357C64.2864 27.6326 67.1431 30.4674 70.6671 30.4674Z" fill="url(#paint17_linear)"/>
<path d="M56.4009 19.5052C59.2622 19.5052 61.5817 17.2035 61.5817 14.3643C61.5817 11.525 59.2622 9.22337 56.4009 9.22337C53.5396 9.22337 51.2201 11.525 51.2201 14.3643C51.2201 17.2035 53.5396 19.5052 56.4009 19.5052Z" fill="url(#paint18_linear)"/>
</g>
<defs>
<linearGradient id="paint0_linear" x1="10.9738" y1="102.515" x2="81.3565" y2="31.5864" gradientUnits="userSpaceOnUse">
<stop stop-color="#002E62"/>
<stop offset="1" stop-color="#38B5FF"/>
</linearGradient>
<linearGradient id="paint1_linear" x1="2.87871" y1="94.4828" x2="73.2615" y2="23.5537" gradientUnits="userSpaceOnUse">
<stop stop-color="#002E62"/>
<stop offset="1" stop-color="#38B5FF"/>
</linearGradient>
<linearGradient id="paint2_linear" x1="-5.23531" y1="86.4313" x2="65.1475" y2="15.5023" gradientUnits="userSpaceOnUse">
<stop stop-color="#002E62"/>
<stop offset="1" stop-color="#38B5FF"/>
</linearGradient>
<linearGradient id="paint3_linear" x1="-13.3303" y1="78.3986" x2="57.0525" y2="7.46959" gradientUnits="userSpaceOnUse">
<stop stop-color="#002E62"/>
<stop offset="1" stop-color="#38B5FF"/>
</linearGradient>
<linearGradient id="paint4_linear" x1="-21.4443" y1="70.3471" x2="48.9385" y2="-0.581953" gradientUnits="userSpaceOnUse">
<stop stop-color="#002E62"/>
<stop offset="1" stop-color="#38B5FF"/>
</linearGradient>
<linearGradient id="paint5_linear" x1="-0.397377" y1="91.2509" x2="70.0043" y2="20.3028" gradientUnits="userSpaceOnUse">
<stop stop-color="#002E62"/>
<stop offset="1" stop-color="#38B5FF"/>
</linearGradient>
<linearGradient id="paint6_linear" x1="-8.49238" y1="83.1993" x2="61.8904" y2="12.2703" gradientUnits="userSpaceOnUse">
<stop stop-color="#002E62"/>
<stop offset="1" stop-color="#38B5FF"/>
</linearGradient>
<linearGradient id="paint7_linear" x1="-16.6064" y1="75.1478" x2="53.7764" y2="4.21873" gradientUnits="userSpaceOnUse">
<stop stop-color="#002E62"/>
<stop offset="1" stop-color="#38B5FF"/>
</linearGradient>
<linearGradient id="paint8_linear" x1="-24.7014" y1="67.1151" x2="45.6814" y2="-3.8139" gradientUnits="userSpaceOnUse">
<stop stop-color="#002E62"/>
<stop offset="1" stop-color="#38B5FF"/>
</linearGradient>
<linearGradient id="paint9_linear" x1="-11.6161" y1="80.0996" x2="58.7666" y2="9.17064" gradientUnits="userSpaceOnUse">
<stop stop-color="#002E62"/>
<stop offset="1" stop-color="#38B5FF"/>
</linearGradient>
<linearGradient id="paint10_linear" x1="-19.7301" y1="72.0481" x2="50.6526" y2="1.11907" gradientUnits="userSpaceOnUse">
<stop stop-color="#002E62"/>
<stop offset="1" stop-color="#38B5FF"/>
</linearGradient>
<linearGradient id="paint11_linear" x1="-27.8251" y1="64.0155" x2="42.5576" y2="-6.91357" gradientUnits="userSpaceOnUse">
<stop stop-color="#002E62"/>
<stop offset="1" stop-color="#38B5FF"/>
</linearGradient>
<linearGradient id="paint12_linear" x1="13.5832" y1="105.105" x2="83.9659" y2="34.1758" gradientUnits="userSpaceOnUse">
<stop stop-color="#002E62"/>
<stop offset="1" stop-color="#38B5FF"/>
</linearGradient>
<linearGradient id="paint13_linear" x1="5.48816" y1="97.0722" x2="75.8709" y2="26.1431" gradientUnits="userSpaceOnUse">
<stop stop-color="#002E62"/>
<stop offset="1" stop-color="#38B5FF"/>
</linearGradient>
<linearGradient id="paint14_linear" x1="-2.62587" y1="89.0206" x2="67.7569" y2="18.0916" gradientUnits="userSpaceOnUse">
<stop stop-color="#002E62"/>
<stop offset="1" stop-color="#38B5FF"/>
</linearGradient>
<linearGradient id="paint15_linear" x1="16.5748" y1="108.212" x2="86.9574" y2="37.2637" gradientUnits="userSpaceOnUse">
<stop stop-color="#002E62"/>
<stop offset="1" stop-color="#38B5FF"/>
</linearGradient>
<linearGradient id="paint16_linear" x1="9.43091" y1="100.985" x2="79.8137" y2="30.0555" gradientUnits="userSpaceOnUse">
<stop stop-color="#002E62"/>
<stop offset="1" stop-color="#38B5FF"/>
</linearGradient>
<linearGradient id="paint17_linear" x1="1.31688" y1="92.933" x2="71.6997" y2="22.004" gradientUnits="userSpaceOnUse">
<stop stop-color="#002E62"/>
<stop offset="1" stop-color="#38B5FF"/>
</linearGradient>
<linearGradient id="paint18_linear" x1="-10.7399" y1="80.988" x2="59.6619" y2="10.0588" gradientUnits="userSpaceOnUse">
<stop stop-color="#002E62"/>
<stop offset="1" stop-color="#38B5FF"/>
</linearGradient>
<clipPath id="clip0">
<rect width="85" height="77" fill="white"/>
</clipPath>
</defs>
</svg>
