<svg width="52" height="52" viewBox="0 0 52 52" fill="none" xmlns="http://www.w3.org/2000/svg">
<path d="M52 14.8892C52 11.0867 50.6269 9.25448 49.4731 8.38917C48.9436 7.97693 48.3263 7.69215 47.669 7.55689C47.0117 7.42163 46.3321 7.43951 45.6828 7.60917C43.2453 8.30385 41.7137 11.2654 41.0759 12.7726C40.9663 12.732 40.8606 12.6954 40.7469 12.6629C39.4062 12.281 37.9275 11.7042 36.3594 11.0948C33.1094 9.82729 29.4084 8.39323 25.9878 8.39323C22.2097 8.39323 17.8303 10.1157 14.3122 11.497C13.1706 11.9479 12.09 12.3745 11.1881 12.6751C11.1028 12.7035 11.0134 12.7442 10.9281 12.7807C10.2903 11.2817 8.75062 8.31198 6.31719 7.60917C5.66795 7.4392 4.98827 7.42116 4.33092 7.55643C3.67358 7.69171 3.05625 7.97666 2.52688 8.38917C1.37312 9.25448 0 11.0867 0 14.8892C0 20.7432 7.215 32.0939 7.52375 32.5895C8.55156 35.6242 9.65656 38.2282 10.2456 38.8295C13.5525 42.1851 21.1859 44.517 25.9716 44.517C30.7572 44.517 38.4191 42.177 41.6975 38.8295C42.2866 38.2282 43.4403 35.5592 44.5047 32.5042C45.1994 31.4479 52 20.5726 52 14.8892ZM46.1297 9.16917C46.5366 9.06707 46.9616 9.06014 47.3717 9.14891C47.7817 9.23769 48.1658 9.41978 48.4941 9.68104C49.7128 10.5951 50.375 12.4435 50.375 14.8892C50.375 17.7329 48.3681 22.2301 46.4628 25.8579C46.6833 24.9337 46.8193 23.9914 46.8691 23.0426C46.9381 19.8657 45.0531 15.5514 42.4897 13.577C43.0625 12.151 44.3991 9.66479 46.1297 9.16917ZM1.625 14.8892C1.625 12.4517 2.29125 10.5951 3.50594 9.68104C3.83406 9.4195 4.21813 9.23724 4.62823 9.14845C5.03833 9.05967 5.4634 9.06676 5.87031 9.16917C7.59687 9.66073 8.92938 12.1592 9.52656 13.5892C7.11344 15.4214 5.2 19.171 5.2 22.5267C5.25328 23.7598 5.42883 24.9845 5.72406 26.1829C3.74969 22.4982 1.625 17.8142 1.625 14.8892ZM40.5519 37.7123C37.9356 40.3895 30.875 42.9204 26 42.9204C21.0641 42.9204 14.1213 40.4342 11.4319 37.7082C10.6194 36.851 6.81688 26.3332 6.81688 22.5267C6.81688 19.1548 9.25438 15.0354 11.7163 14.2107C12.6547 13.8979 13.7475 13.4673 14.9216 12.992C18.2812 11.6717 22.5184 10.0142 26 10.0142C29.1159 10.0142 32.5 11.3304 35.7825 12.606C37.4075 13.2276 38.8984 13.8248 40.3162 14.231C40.5813 14.313 40.8351 14.4277 41.0719 14.5723C41.1056 14.5963 41.1409 14.618 41.1775 14.6373C43.3225 16.0023 45.3294 19.9389 45.24 23.0182C45.1669 26.7192 41.3319 36.8957 40.5519 37.7123Z" fill="#161616"/>
<path d="M34.7913 29.372C34.7304 29.372 28.6976 30.477 26.0001 30.477C23.3026 30.477 17.2698 29.3842 17.2088 29.372C16.9966 29.3332 16.7776 29.3803 16.6001 29.503C16.4226 29.6256 16.3011 29.8138 16.2623 30.026C16.2235 30.2383 16.2706 30.4573 16.3933 30.6348C16.5159 30.8123 16.7041 30.9338 16.9163 30.9726C17.1723 31.0173 23.1563 32.0938 26.0001 32.0938C28.8438 32.0938 34.8279 31.0092 35.0838 30.9645C35.2961 30.9257 35.4843 30.8042 35.6069 30.6266C35.7296 30.4491 35.7767 30.2302 35.7379 30.0179C35.6991 29.8056 35.5776 29.6175 35.4001 29.4948C35.2226 29.3722 35.0036 29.3251 34.7913 29.3638V29.372Z" fill="#161616"/>
<path d="M34.7913 24.0907C34.7304 24.0907 28.6976 25.1957 26.0001 25.1957C23.3026 25.1957 17.2698 24.1029 17.2088 24.0907C16.9966 24.0519 16.7776 24.099 16.6001 24.2217C16.4226 24.3444 16.3011 24.5325 16.2623 24.7448C16.2235 24.957 16.2706 25.176 16.3933 25.3535C16.5159 25.531 16.7041 25.6526 16.9163 25.6913C17.1723 25.736 23.1563 26.8126 26.0001 26.8126C28.8438 26.8126 34.8279 25.7279 35.0838 25.6832C35.2961 25.6444 35.4843 25.5229 35.6069 25.3454C35.7296 25.1679 35.7767 24.9489 35.7379 24.7367C35.6991 24.5244 35.5776 24.3362 35.4001 24.2136C35.2226 24.0909 35.0036 24.0438 34.7913 24.0826V24.0907Z" fill="#161616"/>
<path d="M34.7913 18.8095C34.7304 18.8095 28.6976 19.9145 26.0001 19.9145C23.3026 19.9145 17.2698 18.8217 17.2088 18.8095C16.9966 18.7707 16.7776 18.8178 16.6001 18.9405C16.4226 19.0631 16.3011 19.2513 16.2623 19.4635C16.2235 19.6758 16.2706 19.8948 16.3933 20.0723C16.5159 20.2498 16.7041 20.3713 16.9163 20.4101C17.1723 20.4548 23.1563 21.5313 26.0001 21.5313C28.8438 21.5313 34.8279 20.4467 35.0838 20.402C35.1889 20.3828 35.2892 20.343 35.379 20.2851C35.4687 20.2271 35.5462 20.152 35.6069 20.0641C35.6677 19.9762 35.7105 19.8772 35.733 19.7728C35.7554 19.6684 35.7571 19.5605 35.7379 19.4554C35.7187 19.3503 35.679 19.25 35.621 19.1603C35.5631 19.0705 35.488 18.9931 35.4001 18.9323C35.3122 18.8716 35.2132 18.8288 35.1087 18.8063C35.0043 18.7838 34.8964 18.7821 34.7913 18.8013V18.8095Z" fill="#161616"/>
</svg>
