<svg width="52" height="52" viewBox="0 0 52 52" fill="none" xmlns="http://www.w3.org/2000/svg">
<g clip-path="url(#clip0)">
<path d="M21.9375 31.2812C21.722 31.2812 21.5153 31.3669 21.363 31.5192C21.2106 31.6716 21.125 31.8783 21.125 32.0938V41.4375C21.125 41.653 21.2106 41.8597 21.363 42.012C21.5153 42.1644 21.722 42.25 21.9375 42.25C22.153 42.25 22.3597 42.1644 22.512 42.012C22.6644 41.8597 22.75 41.653 22.75 41.4375V32.0938C22.75 31.8783 22.6644 31.6716 22.512 31.5192C22.3597 31.3669 22.153 31.2812 21.9375 31.2812Z" fill="#161616"/>
<path d="M30.0625 31.2812C29.847 31.2812 29.6403 31.3669 29.488 31.5192C29.3356 31.6716 29.25 31.8783 29.25 32.0938V41.4375C29.25 41.653 29.3356 41.8597 29.488 42.012C29.6403 42.1644 29.847 42.25 30.0625 42.25C30.278 42.25 30.4847 42.1644 30.637 42.012C30.7894 41.8597 30.875 41.653 30.875 41.4375V32.0938C30.875 31.8783 30.7894 31.6716 30.637 31.5192C30.4847 31.3669 30.278 31.2812 30.0625 31.2812Z" fill="#161616"/>
<path d="M30.0625 26.0812C30.8968 25.3022 31.4773 24.2901 31.7287 23.1767C31.98 22.0632 31.8905 20.8999 31.4718 19.838C31.0531 18.7761 30.3246 17.8648 29.3809 17.2225C28.4373 16.5803 27.3222 16.2368 26.1808 16.2368C25.0393 16.2368 23.9243 16.5803 22.9806 17.2225C22.037 17.8648 21.3085 18.7761 20.8897 19.838C20.471 20.8999 20.3815 22.0632 20.6329 23.1767C20.8842 24.2901 21.4648 25.3022 22.2991 26.0812C20.1012 26.4997 17.875 28.4375 17.875 30.875V41.4375C17.875 41.653 17.9606 41.8596 18.113 42.012C18.2653 42.1644 18.472 42.25 18.6875 42.25C18.903 42.25 19.1097 42.1644 19.262 42.012C19.4144 41.8596 19.5 41.653 19.5 41.4375V30.875C19.5 29.2947 21.3809 27.625 23.1562 27.625H29.25C30.0983 27.6672 30.9006 28.0232 31.5012 28.6238C32.1018 29.2244 32.4577 30.0267 32.5 30.875V41.4375C32.5 41.653 32.5856 41.8596 32.738 42.012C32.8903 42.1644 33.097 42.25 33.3125 42.25C33.528 42.25 33.7347 42.1644 33.887 42.012C34.0394 41.8596 34.125 41.653 34.125 41.4375V30.875C34.0942 29.733 33.6749 28.6356 32.9363 27.7641C32.1977 26.8926 31.184 26.2989 30.0625 26.0812ZM22.1244 21.9375C22.1244 21.134 22.3626 20.3485 22.809 19.6805C23.2554 19.0124 23.8899 18.4917 24.6322 18.1842C25.3745 17.8767 26.1914 17.7963 26.9794 17.953C27.7675 18.1098 28.4913 18.4967 29.0595 19.0649C29.6276 19.633 30.0146 20.3569 30.1713 21.1449C30.3281 21.933 30.2476 22.7498 29.9401 23.4921C29.6327 24.2345 29.112 24.8689 28.4439 25.3153C27.7758 25.7617 26.9904 26 26.1869 26C25.1094 26 24.0761 25.572 23.3143 24.8101C22.5524 24.0482 22.1244 23.0149 22.1244 21.9375Z" fill="#161616"/>
<path d="M41.0312 30.4688C40.8158 30.4688 40.6091 30.5544 40.4567 30.7067C40.3044 30.8591 40.2188 31.0658 40.2188 31.2812V41.0312C40.2188 41.2467 40.3044 41.4534 40.4567 41.6058C40.6091 41.7581 40.8158 41.8438 41.0312 41.8438C41.2467 41.8438 41.4534 41.7581 41.6058 41.6058C41.7581 41.4534 41.8438 41.2467 41.8438 41.0312V31.2812C41.8438 31.0658 41.7581 30.8591 41.6058 30.7067C41.4534 30.5544 41.2467 30.4688 41.0312 30.4688Z" fill="#161616"/>
<path d="M41.4091 26.4266C42.0558 25.6426 42.416 24.6616 42.4302 23.6454C42.4444 22.6291 42.1118 21.6384 41.4872 20.8367C40.8627 20.0349 39.9835 19.47 38.9946 19.2351C38.0058 19.0002 36.9665 19.1094 36.0481 19.5447C35.1297 19.98 34.3871 20.7153 33.9428 21.6293C33.4985 22.5434 33.3791 23.5816 33.6042 24.5727C33.8293 25.5638 34.3855 26.4485 35.1811 27.081C35.9766 27.7134 36.964 28.0558 37.9803 28.0516H38.1185L38.1875 28.0313H41.0313C41.6729 28.0468 42.2839 28.3085 42.7377 28.7623C43.1915 29.2161 43.4533 29.8272 43.4688 30.4688V38.5938C43.4688 38.8093 43.5544 39.0159 43.7068 39.1683C43.8591 39.3207 44.0658 39.4063 44.2813 39.4063C44.4968 39.4063 44.7034 39.3207 44.8558 39.1683C45.0082 39.0159 45.0938 38.8093 45.0938 38.5938V30.4688C45.0796 29.4612 44.697 28.4936 44.0181 27.7488C43.3392 27.0041 42.4111 26.5337 41.4091 26.4266ZM35.1366 23.5625C35.1366 23.0001 35.3034 22.4503 35.6159 21.9826C35.9283 21.515 36.3725 21.1505 36.8921 20.9353C37.4117 20.72 37.9835 20.6637 38.5351 20.7734C39.0868 20.8832 39.5935 21.154 39.9912 21.5517C40.3889 21.9494 40.6597 22.4561 40.7695 23.0078C40.8792 23.5594 40.8229 24.1312 40.6076 24.6508C40.3924 25.1704 40.0279 25.6146 39.5602 25.927C39.0926 26.2395 38.5428 26.4063 37.9803 26.4063C37.2261 26.4063 36.5028 26.1067 35.9695 25.5734C35.4362 25.0401 35.1366 24.3167 35.1366 23.5625Z" fill="#161616"/>
<path d="M17.875 17.0625C16.9912 17.0625 16.1272 16.8004 15.3923 16.3094C14.6574 15.8183 14.0846 15.1204 13.7464 14.3039C13.4082 13.4873 13.3197 12.5888 13.4921 11.7219C13.6645 10.8551 14.0902 10.0588 14.7151 9.43387C15.3401 8.8089 16.1363 8.3833 17.0032 8.21087C17.87 8.03844 18.7686 8.12694 19.5851 8.46517C20.4017 8.80339 21.0996 9.37616 21.5906 10.111C22.0817 10.8459 22.3438 11.7099 22.3438 12.5938C22.3438 13.7789 21.8729 14.9156 21.0349 15.7536C20.1968 16.5917 19.0602 17.0625 17.875 17.0625ZM17.875 9.75C17.3126 9.75 16.7628 9.91678 16.2951 10.2293C15.8274 10.5417 15.463 10.9859 15.2477 11.5055C15.0325 12.0251 14.9762 12.5969 15.0859 13.1485C15.1956 13.7002 15.4665 14.2069 15.8642 14.6046C16.2619 15.0023 16.7686 15.2731 17.3202 15.3829C17.8718 15.4926 18.4436 15.4363 18.9633 15.221C19.4829 15.0058 19.927 14.6413 20.2395 14.1737C20.552 13.706 20.7188 13.1562 20.7188 12.5938C20.7188 11.8395 20.4191 11.1162 19.8858 10.5829C19.3525 10.0496 18.6292 9.75 17.875 9.75Z" fill="#161616"/>
<path d="M34.125 17.0625C33.2412 17.0625 32.3772 16.8004 31.6423 16.3094C30.9074 15.8183 30.3346 15.1204 29.9964 14.3039C29.6582 13.4873 29.5697 12.5888 29.7421 11.7219C29.9145 10.8551 30.3402 10.0588 30.9651 9.43387C31.5901 8.8089 32.3863 8.3833 33.2532 8.21087C34.12 8.03844 35.0186 8.12694 35.8351 8.46517C36.6517 8.80339 37.3496 9.37616 37.8406 10.111C38.3317 10.8459 38.5938 11.7099 38.5938 12.5938C38.5938 13.7789 38.1229 14.9156 37.2849 15.7536C36.4468 16.5917 35.3102 17.0625 34.125 17.0625ZM34.125 9.75C33.5626 9.75 33.0127 9.91678 32.5451 10.2293C32.0774 10.5417 31.713 10.9859 31.4977 11.5055C31.2825 12.0251 31.2262 12.5969 31.3359 13.1485C31.4456 13.7002 31.7165 14.2069 32.1142 14.6046C32.5119 15.0023 33.0186 15.2731 33.5702 15.3829C34.1218 15.4926 34.6936 15.4363 35.2133 15.221C35.7329 15.0058 36.177 14.6413 36.4895 14.1737C36.802 13.706 36.9688 13.1562 36.9688 12.5938C36.9688 11.8395 36.6691 11.1162 36.1358 10.5829C35.6025 10.0496 34.8792 9.75 34.125 9.75Z" fill="#161616"/>
<path d="M26 0C20.8577 0 15.8309 1.52487 11.5552 4.38179C7.27951 7.23871 3.94702 11.2994 1.97914 16.0502C0.0112653 20.8011 -0.503621 26.0288 0.499594 31.0723C1.50281 36.1159 3.97907 40.7486 7.61524 44.3848C11.2514 48.0209 15.8842 50.4972 20.9277 51.5004C25.9712 52.5036 31.1989 51.9887 35.9498 50.0209C40.7007 48.053 44.7613 44.7205 47.6182 40.4448C50.4751 36.1691 52 31.1423 52 26C51.9925 19.1067 49.2508 12.4979 44.3765 7.62354C39.5022 2.74922 32.8933 0.00752722 26 0V0ZM26 1.625C32.1883 1.61822 38.1458 3.97361 42.6563 8.21031L8.21032 42.6562C4.96333 39.187 2.80114 34.8444 1.9897 30.1624C1.17827 25.4805 1.75298 20.6636 3.64314 16.304C5.5333 11.9444 8.65648 8.23233 12.6285 5.62437C16.6006 3.01642 21.2483 1.6263 26 1.625ZM26 50.375C19.8118 50.3818 13.8543 48.0264 9.34376 43.7897L43.7897 9.34375C47.0367 12.813 49.1989 17.1556 50.0103 21.8376C50.8218 26.5195 50.247 31.3364 48.3569 35.696C46.4667 40.0556 43.3435 43.7677 39.3715 46.3756C35.3994 48.9836 30.7517 50.3737 26 50.375Z" fill="#161616"/>
<path d="M10.7615 30.4688C10.546 30.4688 10.3393 30.5544 10.187 30.7067C10.0346 30.8591 9.94897 31.0658 9.94897 31.2812V41.0312C9.94897 41.2467 10.0346 41.4534 10.187 41.6058C10.3393 41.7581 10.546 41.8438 10.7615 41.8438C10.977 41.8438 11.1836 41.7581 11.336 41.6058C11.4884 41.4534 11.574 41.2467 11.574 41.0312V31.2812C11.574 31.0658 11.4884 30.8591 11.336 30.7067C11.1836 30.5544 10.977 30.4688 10.7615 30.4688Z" fill="#161616"/>
<path d="M13.8124 19.0938C12.9668 19.098 12.1398 19.342 11.4275 19.7976C10.7151 20.2531 10.1465 20.9014 9.78791 21.6671C9.42928 22.4329 9.29527 23.2847 9.40144 24.1236C9.50762 24.9624 9.84962 25.754 10.3877 26.4062C9.38153 26.5129 8.44966 26.9857 7.76948 27.7348C7.0893 28.4839 6.70829 29.457 6.69897 30.4688V38.5938C6.69897 38.8092 6.78458 39.0159 6.93695 39.1683C7.08932 39.3206 7.29599 39.4062 7.51147 39.4062C7.72696 39.4062 7.93363 39.3206 8.086 39.1683C8.23837 39.0159 8.32397 38.8092 8.32397 38.5938V30.4688C8.34043 29.8275 8.60251 29.217 9.05612 28.7634C9.50972 28.3098 10.1202 28.0477 10.7615 28.0312H13.6052H13.6743H13.8124C14.9976 28.0312 16.1342 27.5604 16.9723 26.7224C17.8103 25.8843 18.2812 24.7477 18.2812 23.5625C18.2812 22.3773 17.8103 21.2407 16.9723 20.4026C16.1342 19.5646 14.9976 19.0938 13.8124 19.0938ZM13.8124 26.4062C13.25 26.4062 12.7002 26.2395 12.2325 25.927C11.7649 25.6145 11.4004 25.1704 11.1851 24.6508C10.9699 24.1311 10.9136 23.5593 11.0233 23.0077C11.133 22.4561 11.4039 21.9494 11.8016 21.5517C12.1993 21.154 12.706 20.8831 13.2576 20.7734C13.8093 20.6637 14.381 20.72 14.9007 20.9352C15.4203 21.1505 15.8644 21.5149 16.1769 21.9826C16.4894 22.4502 16.6562 23.0001 16.6562 23.5625C16.6562 24.3167 16.3566 25.04 15.8232 25.5733C15.2899 26.1066 14.5666 26.4062 13.8124 26.4062Z" fill="#161616"/>
</g>
<defs>
<clipPath id="clip0">
<rect width="52" height="52" fill="white"/>
</clipPath>
</defs>
</svg>
