<svg width="64" height="30" viewBox="0 0 64 30" fill="none" xmlns="http://www.w3.org/2000/svg">
<path d="M3 4.5C1.61929 4.5 0.5 5.61929 0.5 7V23C0.5 24.3807 1.61929 25.5 3 25.5H19C20.3807 25.5 21.5 24.3807 21.5 23V7C21.5 5.61929 20.3807 4.5 19 4.5H3Z" fill="#6FCF97" stroke="#FCFCFC"/>
<path opacity="0.5" d="M11.748 19H10.0547V12.4727L8.0332 13.0996V11.7227L11.5664 10.457H11.748V19Z" fill="#FCFCFC"/>
<path d="M24 4.5C22.6193 4.5 21.5 5.61929 21.5 7V23C21.5 24.3807 22.6193 25.5 24 25.5H40C41.3807 25.5 42.5 24.3807 42.5 23V7C42.5 5.61929 41.3807 4.5 40 4.5H24Z" fill="#FFE69A" stroke="#FCFCFC"/>
<path opacity="0.5" d="M34.4824 19H28.6348V17.8398L31.3945 14.8984C31.7734 14.4844 32.0527 14.123 32.2324 13.8145C32.416 13.5059 32.5078 13.2129 32.5078 12.9355C32.5078 12.5566 32.4121 12.2598 32.2207 12.0449C32.0293 11.8262 31.7559 11.7168 31.4004 11.7168C31.0176 11.7168 30.7148 11.8496 30.4922 12.1152C30.2734 12.377 30.1641 12.7227 30.1641 13.1523H28.4648C28.4648 12.6328 28.5879 12.1582 28.834 11.7285C29.084 11.2988 29.4355 10.9629 29.8887 10.7207C30.3418 10.4746 30.8555 10.3516 31.4297 10.3516C32.3086 10.3516 32.9902 10.5625 33.4746 10.9844C33.9629 11.4062 34.207 12.002 34.207 12.7715C34.207 13.1934 34.0977 13.623 33.8789 14.0605C33.6602 14.498 33.2852 15.0078 32.7539 15.5898L30.8145 17.6348H34.4824V19Z" fill="#FCFCFC"/>
<path d="M61 29.5C62.3807 29.5 63.5 28.3807 63.5 27L63.5 3C63.5 1.61929 62.3807 0.500004 61 0.500004L45 0.500002C43.6193 0.500002 42.5 1.61929 42.5 3L42.5 27C42.5 28.3807 43.6193 29.5 45 29.5L61 29.5Z" fill="#E84C4C" stroke="#FCFCFC"/>
<path d="M51.3574 13.9844H52.2598C52.6895 13.9844 53.0078 13.877 53.2148 13.6621C53.4219 13.4473 53.5254 13.1621 53.5254 12.8066C53.5254 12.4629 53.4219 12.1953 53.2148 12.0039C53.0117 11.8125 52.7305 11.7168 52.3711 11.7168C52.0469 11.7168 51.7754 11.8066 51.5566 11.9863C51.3379 12.1621 51.2285 12.3926 51.2285 12.6777H49.5352C49.5352 12.2324 49.6543 11.834 49.8926 11.4824C50.1348 11.127 50.4707 10.8496 50.9004 10.6504C51.334 10.4512 51.8105 10.3516 52.3301 10.3516C53.2324 10.3516 53.9395 10.5684 54.4512 11.002C54.9629 11.4316 55.2188 12.0254 55.2188 12.7832C55.2188 13.1738 55.0996 13.5332 54.8613 13.8613C54.623 14.1895 54.3105 14.4414 53.9238 14.6172C54.4043 14.7891 54.7617 15.0469 54.9961 15.3906C55.2344 15.7344 55.3535 16.1406 55.3535 16.6094C55.3535 17.3672 55.0762 17.9746 54.5215 18.4316C53.9707 18.8887 53.2402 19.1172 52.3301 19.1172C51.4785 19.1172 50.7812 18.8926 50.2383 18.4434C49.6992 17.9941 49.4297 17.4004 49.4297 16.6621H51.123C51.123 16.9824 51.2422 17.2441 51.4805 17.4473C51.7227 17.6504 52.0195 17.752 52.3711 17.752C52.7734 17.752 53.0879 17.6465 53.3145 17.4355C53.5449 17.2207 53.6602 16.9375 53.6602 16.5859C53.6602 15.7344 53.1914 15.3086 52.2539 15.3086H51.3574V13.9844Z" fill="white"/>
</svg>
