<svg width="52" height="52" viewBox="0 0 52 52" fill="none"
  xmlns="http://www.w3.org/2000/svg">
  <path d="M23 24.8027L23.5007 25.6683C23.8097 25.4896 24 25.1597 24 24.8027H23ZM29 24.8027H28C28 25.1597 28.1903 25.4896 28.4993 25.6683L29 24.8027ZM24 17V15C22.8954 15 22 15.8954 22 17H24ZM24 24.8027V17H22V24.8027H24ZM22.4993 23.9371C20.4096 25.1459 19 27.4078 19 30H21C21 28.1506 22.0036 26.5343 23.5007 25.6683L22.4993 23.9371ZM19 30C19 33.866 22.134 37 26 37V35C23.2386 35 21 32.7614 21 30H19ZM26 37C29.866 37 33 33.866 33 30H31C31 32.7614 28.7614 35 26 35V37ZM33 30C33 27.4078 31.5904 25.1459 29.5007 23.9371L28.4993 25.6683C29.9964 26.5343 31 28.1506 31 30H33ZM28 17V24.8027H30V17H28ZM28 17H30C30 15.8954 29.1046 15 28 15V17ZM24 17H28V15H24V17Z" fill="#BDBDBD"/>
  <circle cx="26" cy="30" r="1.5" stroke="#BDBDBD" stroke-width="3"/>
</svg>
