<svg width="48" height="42" viewBox="0 0 48 42" fill="none" xmlns="http://www.w3.org/2000/svg">
<path d="M9 10.8027L9.50073 11.6683C9.80972 11.4896 10 11.1597 10 10.8027H9ZM15 10.8027H14C14 11.1597 14.1903 11.4896 14.4993 11.6683L15 10.8027ZM10 3V1C8.89543 1 8 1.89543 8 3H10ZM10 10.8027V3H8V10.8027H10ZM8.49927 9.93709C6.40958 11.1459 5 13.4078 5 16H7C7 14.1506 8.00361 12.5343 9.50073 11.6683L8.49927 9.93709ZM5 16C5 19.866 8.13401 23 12 23V21C9.23858 21 7 18.7614 7 16H5ZM12 23C15.866 23 19 19.866 19 16H17C17 18.7614 14.7614 21 12 21V23ZM19 16C19 13.4078 17.5904 11.1459 15.5007 9.93709L14.4993 11.6683C15.9964 12.5343 17 14.1506 17 16H19ZM14 3V10.8027H16V3H14ZM14 3H16C16 1.89543 15.1046 1 14 1V3ZM10 3H14V1H10V3Z" fill="#E0E0E0"/>
<path d="M33 10.8027L33.5007 11.6683C33.8097 11.4896 34 11.1597 34 10.8027H33ZM39 10.8027H38C38 11.1597 38.1903 11.4896 38.4993 11.6683L39 10.8027ZM34 3V1C32.8954 1 32 1.89543 32 3H34ZM34 10.8027V3H32V10.8027H34ZM32.4993 9.93709C30.4096 11.1459 29 13.4078 29 16H31C31 14.1506 32.0036 12.5343 33.5007 11.6683L32.4993 9.93709ZM29 16C29 19.866 32.134 23 36 23V21C33.2386 21 31 18.7614 31 16H29ZM36 23C39.866 23 43 19.866 43 16H41C41 18.7614 38.7614 21 36 21V23ZM43 16C43 13.4078 41.5904 11.1459 39.5007 9.93709L38.4993 11.6683C39.9964 12.5343 41 14.1506 41 16H43ZM38 3V10.8027H40V3H38ZM38 3H40C40 1.89543 39.1046 1 38 1V3ZM34 3H38V1H34V3Z" fill="#E0E0E0"/>
<path d="M11.6277 30.2727H10.5879V37.142H10.5027L5.72994 30.2727H4.70721V39H5.76403V32.1477H5.84925L10.6049 39H11.6277V30.2727ZM16.2651 39.1364C18.0378 39.1364 19.231 37.7898 19.231 35.7614C19.231 33.7159 18.0378 32.3693 16.2651 32.3693C14.4924 32.3693 13.2992 33.7159 13.2992 35.7614C13.2992 37.7898 14.4924 39.1364 16.2651 39.1364ZM16.2651 38.233C14.9185 38.233 14.3049 37.0739 14.3049 35.7614C14.3049 34.4489 14.9185 33.2727 16.2651 33.2727C17.6117 33.2727 18.2253 34.4489 18.2253 35.7614C18.2253 37.0739 17.6117 38.233 16.2651 38.233ZM20.7662 39H21.7718V34.858C21.7718 33.9716 22.4707 33.3239 23.4252 33.3239C23.6937 33.3239 23.9707 33.375 24.0389 33.392V32.3693C23.9238 32.3608 23.6596 32.3523 23.5105 32.3523C22.7264 32.3523 22.0446 32.7955 21.8059 33.4432H21.7377V32.4545H20.7662V39ZM25.231 39H26.2367V34.9091C26.2367 33.9503 26.9355 33.2727 27.7196 33.2727C28.4824 33.2727 29.0151 33.7713 29.0151 34.517V39H30.0378V34.7386C30.0378 33.8949 30.5662 33.2727 31.4867 33.2727C32.2026 33.2727 32.8162 33.652 32.8162 34.6193V39H33.8219V34.6193C33.8219 33.081 32.9952 32.3693 31.8276 32.3693C30.8901 32.3693 30.204 32.7997 29.8674 33.4773H29.7992C29.4753 32.7784 28.9043 32.3693 28.0435 32.3693C27.1912 32.3693 26.5605 32.7784 26.2878 33.4773H26.2026V32.4545H25.231V39ZM37.5868 39.1534C38.7289 39.1534 39.3255 38.5398 39.53 38.1136H39.5811V39H40.5868V34.6875C40.5868 32.608 39.0016 32.3693 38.1664 32.3693C37.1777 32.3693 36.0527 32.7102 35.5414 33.9034L36.4959 34.2443C36.7175 33.767 37.2417 33.2557 38.2005 33.2557C39.1252 33.2557 39.5811 33.7457 39.5811 34.5852V34.6193C39.5811 35.1051 39.0868 35.0625 37.8936 35.2159C36.6792 35.3736 35.3539 35.642 35.3539 37.142C35.3539 38.4205 36.3425 39.1534 37.5868 39.1534ZM37.7402 38.25C36.9391 38.25 36.3596 37.892 36.3596 37.1932C36.3596 36.4261 37.0584 36.1875 37.8425 36.0852C38.2686 36.0341 39.4107 35.9148 39.5811 35.7102V36.6307C39.5811 37.4489 38.9334 38.25 37.7402 38.25ZM43.4281 30.2727H42.4224V39H43.4281V30.2727Z" fill="#E0E0E0"/>
</svg>
