<svg width="48" height="42" viewBox="0 0 48 42" fill="none"
  xmlns="http://www.w3.org/2000/svg">
  <path d="M9 10.8027L9.50073 11.6683C9.80972 11.4896 10 11.1597 10 10.8027H9ZM15 10.8027H14C14 11.1597 14.1903 11.4896 14.4993 11.6683L15 10.8027ZM10 3V1C8.89543 1 8 1.89543 8 3H10ZM10 10.8027V3H8V10.8027H10ZM8.49927 9.93709C6.40958 11.1459 5 13.4078 5 16H7C7 14.1506 8.00361 12.5343 9.50073 11.6683L8.49927 9.93709ZM5 16C5 19.866 8.13401 23 12 23V21C9.23858 21 7 18.7614 7 16H5ZM12 23C15.866 23 19 19.866 19 16H17C17 18.7614 14.7614 21 12 21V23ZM19 16C19 13.4078 17.5904 11.1459 15.5007 9.93709L14.4993 11.6683C15.9964 12.5343 17 14.1506 17 16H19ZM14 3V10.8027H16V3H14ZM14 3H16C16 1.89543 15.1046 1 14 1V3ZM10 3H14V1H10V3Z" fill="#E0E0E0"/>
  <path d="M33 10.8027L33.5007 11.6683C33.8097 11.4896 34 11.1597 34 10.8027H33ZM39 10.8027H38C38 11.1597 38.1903 11.4896 38.4993 11.6683L39 10.8027ZM34 3V1C32.8954 1 32 1.89543 32 3H34ZM34 10.8027V3H32V10.8027H34ZM32.4993 9.93709C30.4096 11.1459 29 13.4078 29 16H31C31 14.1506 32.0036 12.5343 33.5007 11.6683L32.4993 9.93709ZM29 16C29 19.866 32.134 23 36 23V21C33.2386 21 31 18.7614 31 16H29ZM36 23C39.866 23 43 19.866 43 16H41C41 18.7614 38.7614 21 36 21V23ZM43 16C43 13.4078 41.5904 11.1459 39.5007 9.93709L38.4993 11.6683C39.9964 12.5343 41 14.1506 41 16H43ZM38 3V10.8027H40V3H38ZM38 3H40C40 1.89543 39.1046 1 38 1V3ZM34 3H38V1H34V3Z" fill="#E0E0E0"/>
</svg>
