<svg width="104" height="38" viewBox="0 0 104 38" fill="none" xmlns="http://www.w3.org/2000/svg">
<path fill-rule="evenodd" clip-rule="evenodd" d="M100.929 7.62328L98.8243 10.4926L99.7059 10.9788L102.407 8.29037L100.929 7.62328ZM51.0615 11.7986L50.7772 12.4135L44.9109 25.5865H46.5359L48.1447 21.8492H53.8322L55.4044 25.5865H57.0497L51.3337 12.4135L51.0615 11.7986ZM20.5359 12.1442C16.207 12.1442 13.4997 15.3426 13.4997 19.0522C13.4997 22.7622 16.2278 25.8518 20.5359 25.8518C21.9346 25.8517 23.3315 25.387 24.4684 24.5738V22.8097C23.4148 23.8518 21.9797 24.5256 20.4872 24.5256C17.2517 24.5256 15.1166 21.8831 15.1166 19C15.1166 16.1168 17.213 13.4744 20.4547 13.4744C21.9824 13.4744 23.4148 14.1137 24.4684 15.1903V13.4262C23.2971 12.5611 22.005 12.1442 20.5359 12.1442ZM30.3144 12.4135V25.5865H31.8012V19.1206H36.3187V17.7583H31.8012V12.4135H30.3144ZM38.3459 12.4135V25.5865H39.8287V12.4135H38.3459ZM61.9206 12.4135V25.5865H63.4034V19.8037H65.4062L68.4287 25.5865H70.1512L66.9134 19.6028C68.2919 19.2017 69.6394 18.1523 69.6394 16.0544C69.6394 13.4019 67.6303 12.4135 65.4387 12.4135H61.9206ZM76.2937 12.4135V25.5865H77.7765V12.4135H76.2937ZM83.3787 12.4135V13.7758H86.5962V25.5865H88.079V13.7758H91.329V12.4135H83.3787ZM96.6956 12.4135V25.5865H103.902V24.2242H98.1784V19.0522H103.09V17.6899H98.1784V13.7758H103.683V12.4135H96.6956ZM63.4034 13.7758H65.2437C66.7783 13.7758 68.1525 14.381 68.1525 16.0544C68.1525 17.7286 66.9747 18.5097 65.26 18.5097H63.4034V13.7758ZM51.025 15.2064L53.2512 20.4829H48.7459L51.025 15.2064Z" fill="black"/>
<path fill-rule="evenodd" clip-rule="evenodd" d="M0 18.9999C0 8.50614 8.54573 1.76042e-09 19.371 1.76042e-09C24.1113 -6.31389e-05 28.4502 1.69836 31.7999 4.5133V7.43854C28.7084 4.19387 24.3233 2.16896 19.4602 2.16896C9.97324 2.16896 2.55888 9.67781 2.55888 18.941C2.55888 28.2041 9.97678 35.7135 19.4602 35.7135C24.3233 35.7135 28.7084 33.6883 31.7999 30.4436V33.4863C28.4503 36.3016 24.1112 38 19.371 38C8.55459 38 0 29.4935 0 18.9999V18.9999Z" fill="#878787"/>
<path fill-rule="evenodd" clip-rule="evenodd" d="M60.0072 29.569C59.8407 29.569 59.7025 29.7057 59.7025 29.8704C59.7025 30.0306 59.8408 30.1678 60.0072 30.1678C60.1691 30.1678 60.3078 30.0306 60.3078 29.8704C60.3078 29.7057 60.1691 29.569 60.0072 29.569ZM60.8847 29.569C60.8639 29.569 60.8435 29.5689 60.8238 29.573C60.6856 29.6017 60.58 29.7263 60.58 29.8704C60.58 30.0306 60.7182 30.1678 60.8847 30.1678C61.0466 30.1678 61.1853 30.0306 61.1853 29.8704C61.1853 29.7057 61.0467 29.569 60.8847 29.569V29.569ZM53.1334 30.3205C53.0246 30.3205 52.9227 30.3303 52.8247 30.3526C52.792 30.3601 52.7583 30.3709 52.7272 30.3808C52.696 30.3906 52.6673 30.4008 52.6378 30.4129C52.6084 30.425 52.5801 30.4387 52.5525 30.4531C52.2764 30.5969 52.0975 30.852 52.0975 31.1885C52.0975 31.4318 52.1558 31.5981 52.2803 31.727C52.2981 31.7454 52.3168 31.7623 52.3372 31.7792C52.378 31.813 52.4241 31.8467 52.4753 31.8757C52.5265 31.9047 52.5842 31.9302 52.6459 31.956C52.7695 32.0077 52.9142 32.0558 53.0806 32.1047C53.1464 32.1242 53.208 32.1423 53.2634 32.161C53.6513 32.2916 53.7916 32.4089 53.7916 32.6191C53.7916 32.8461 53.6714 32.9884 53.4259 33.0451C53.385 33.0545 53.3398 33.0605 53.2919 33.0652C53.2439 33.0699 53.1926 33.0732 53.1375 33.0732C52.8409 33.0732 52.5325 32.9305 52.3209 32.7035L51.9838 33.029C52.216 33.2976 52.5476 33.4816 52.9344 33.5233C52.9896 33.5293 53.0476 33.5313 53.105 33.5313C53.91 33.5313 54.2669 33.1476 54.2669 32.587C54.2669 32.4132 54.2321 32.2751 54.1613 32.161C54.1471 32.1382 54.1293 32.1177 54.1125 32.0967C53.9447 31.8871 53.6475 31.7674 53.2594 31.6506C53.1233 31.6106 53.0122 31.5741 52.9222 31.5381C52.8772 31.5201 52.8394 31.4998 52.8044 31.4818C52.6293 31.3923 52.5728 31.3006 52.5728 31.1644C52.5728 31.1382 52.5759 31.1129 52.5809 31.088C52.586 31.0631 52.591 31.0387 52.6013 31.0157C52.6629 30.8774 52.8204 30.7786 53.0969 30.7786C53.3684 30.7786 53.5751 30.8508 53.755 31.0036C53.7807 31.0255 53.8075 31.0509 53.8322 31.076L54.1653 30.7424C53.8865 30.4755 53.5608 30.3205 53.1334 30.3205ZM66.2188 30.3205C65.6385 30.3205 65.1828 30.6501 65.1828 31.1885C65.1828 31.7447 65.5002 31.909 66.1659 32.1047C66.6922 32.2605 66.8769 32.3788 66.8769 32.6191C66.8769 32.8461 66.7566 32.9884 66.5113 33.0451C66.4704 33.0545 66.4251 33.0605 66.3772 33.0652C66.3292 33.0699 66.2779 33.0732 66.2228 33.0732C65.9257 33.0732 65.6174 32.9305 65.4063 32.7035L65.0691 33.029C65.3013 33.2976 65.6329 33.4816 66.0197 33.5233C66.0749 33.5293 66.133 33.5313 66.1903 33.5313C66.9954 33.5313 67.3523 33.1476 67.3522 32.587C67.3522 32.4132 67.3175 32.2751 67.2466 32.161C67.2324 32.1382 67.2146 32.1177 67.1978 32.0967C67.0299 31.8871 66.7326 31.7674 66.3447 31.6506C66.2086 31.6106 66.0975 31.5741 66.0075 31.5381C65.9625 31.5201 65.9247 31.4998 65.8897 31.4818C65.7146 31.3923 65.6581 31.3006 65.6581 31.1644C65.6581 31.1382 65.6612 31.1129 65.6663 31.088C65.6713 31.0631 65.6763 31.0387 65.6866 31.0157C65.7481 30.8774 65.9054 30.7786 66.1822 30.7786C66.4538 30.7786 66.6604 30.8508 66.8403 31.0036C66.866 31.0255 66.8928 31.0509 66.9175 31.076L67.2506 30.7424C66.9718 30.4755 66.6459 30.3205 66.2188 30.3205ZM34.9822 30.3687V32.1731C34.9822 33.0319 35.3862 33.5313 36.1644 33.5313C36.947 33.5313 37.375 33.0572 37.375 32.1851V30.3687H36.8997V32.1931C36.8997 32.7627 36.6676 33.0652 36.1725 33.0652C35.7001 33.0652 35.4534 32.7483 35.4534 32.161V30.3687H34.9822ZM38.2444 30.3687V33.4831H38.7034V31.8676C38.7034 31.6941 38.6994 31.264 38.6994 31.1483C38.7489 31.2284 38.8586 31.4143 38.935 31.5301L40.1903 33.4831H40.6372V30.3687H40.1781V31.9761C40.1781 32.1497 40.1863 32.5919 40.1863 32.7075C40.1413 32.6274 40.0032 32.3985 39.9222 32.2695L38.7278 30.3687H38.2444H38.2444ZM41.5553 30.3687V33.4831H42.0306V30.3687H41.5553ZM42.7497 30.3687L43.8425 33.4831H44.3422L45.4188 30.3687H44.915L44.2691 32.3499C44.2398 32.4411 44.2007 32.5565 44.1675 32.6633C44.1343 32.7701 44.1079 32.8649 44.0944 32.9205C44.0674 32.8093 43.9782 32.5363 43.9197 32.3539L43.2616 30.3687H42.7497ZM46.1175 30.3687V33.4831H48.2138V33.029H46.5888V32.0445H47.4947V31.5904H46.5888V30.8228H48.1447V30.3687H46.1175ZM48.9613 30.3687V33.4831H49.4244V32.2494H50.1353L50.7609 33.4831H51.3053L50.6594 32.2092C51.0869 32.1024 51.3541 31.7953 51.3541 31.297C51.3541 30.6562 50.8916 30.3687 50.3425 30.3687H48.9613ZM55.0753 30.3687V33.4831H55.5466V30.3687H55.0753ZM56.2656 30.3687V30.8268H57.1838V33.4831H57.655V30.8268H58.5731V30.3687H56.2656ZM60.2063 30.3687L59.0728 33.4831H59.5644L59.8244 32.7437H61.0838L61.3478 33.4831H61.8516L60.7059 30.3687H60.2063ZM62.3513 30.3687V30.8268H63.2694V33.4831H63.7406V30.8268H64.6588V30.3687H62.3513ZM68.1363 30.3687V33.4831H68.5831V31.8355C68.5831 31.6486 68.5753 31.3779 68.571 31.289C68.6067 31.3779 68.6978 31.6013 68.7741 31.7792L69.5297 33.5313L70.2935 31.7792C70.3702 31.6013 70.4604 31.3779 70.4966 31.289C70.4921 31.3779 70.4885 31.6486 70.4885 31.8355V33.4831H70.9516V30.3687H70.4478L69.7572 32.0284C69.719 32.1196 69.6771 32.2191 69.6394 32.3137C69.6017 32.4083 69.5685 32.4983 69.546 32.5629C69.5057 32.4338 69.403 32.2064 69.3266 32.0284L68.6238 30.3687H68.1363H68.1363ZM71.8453 30.3687V33.4831H73.9416V33.029H72.3206V32.0445H73.2225V31.5904H72.3206V30.8228H73.8766V30.3687H71.8453ZM74.6891 30.3687V33.4831H75.5503C76.3736 33.4831 77.0819 33.0229 77.0819 31.9239C77.0819 30.8249 76.396 30.3687 75.5503 30.3687H74.6891ZM77.8416 30.3687V33.4831H78.3169V30.3687H77.8416ZM79.1822 30.3687V30.7987H80.3522C80.5366 30.7987 80.86 30.7951 80.9859 30.7906C80.905 30.8707 80.7315 31.0724 80.6325 31.1925L79.0928 33.029V33.4831H81.4856V33.0531H80.2466C80.0621 33.0531 79.7387 33.0567 79.6128 33.0612C79.6938 32.9811 79.8672 32.7794 79.9663 32.6593L81.4856 30.8228V30.3687H79.1822ZM82.3184 30.3687V33.4831H82.7897V30.3687H82.3184ZM83.7078 30.3687V33.4831H84.1669V31.8676C84.1669 31.6941 84.1629 31.264 84.1628 31.1483C84.2126 31.2284 84.3222 31.4143 84.3985 31.5301L85.6538 33.4831H86.1006V30.3687H85.6416V31.9761C85.6416 32.1497 85.6497 32.5919 85.6497 32.7075C85.6048 32.6274 85.4664 32.3985 85.3856 32.2695L84.1913 30.3687H83.7078H83.7078ZM88.2863 30.3687V33.4831H89.5375C89.5805 33.4831 89.6228 33.4816 89.6634 33.4791C90.2735 33.4411 90.6181 33.1191 90.6181 32.5267C90.6181 32.0951 90.3334 31.8661 90.0859 31.7993C90.3153 31.6881 90.4882 31.4923 90.4881 31.1764C90.4881 30.6514 90.131 30.3687 89.5822 30.3687H88.2863V30.3687ZM91.4022 30.3687V33.4831H93.4985V33.029H91.8735V32.0445H92.7794V31.5904H91.8735V30.8228H93.4294V30.3687H91.4022ZM94.2419 30.3687V33.4831H94.705V32.2494H95.416L96.0416 33.4831H96.586L95.9441 32.2092C96.3716 32.1024 96.6348 31.7953 96.6347 31.297C96.6347 30.6562 96.1721 30.3687 95.6231 30.3687H94.2419ZM97.4431 30.3687V33.4831H99.4825V33.025H97.9144V30.3687H97.4431ZM100.218 30.3687V33.4831H100.689V30.3687H100.218ZM101.607 30.3687V33.4831H102.066V31.8676C102.066 31.6941 102.062 31.264 102.062 31.1483C102.112 31.2284 102.217 31.4143 102.294 31.5301L103.549 33.4831H104V30.3687H103.541V31.9761C103.541 32.1497 103.545 32.5919 103.545 32.7075C103.5 32.6274 103.366 32.3985 103.285 32.2695L102.087 30.3687H101.607ZM88.7331 30.7947H89.5781C89.893 30.7947 90.0169 30.9732 90.0169 31.2046C90.0169 31.4093 89.8885 31.6024 89.5781 31.6024H88.7331V30.7947ZM49.4244 30.8107H50.3425C50.6619 30.8107 50.8747 30.9883 50.8747 31.3131C50.8747 31.6513 50.6576 31.8114 50.3425 31.8114H49.4244V30.8107ZM94.705 30.8107H95.6231C95.9425 30.8107 96.1594 30.9883 96.1594 31.3131C96.1594 31.6513 95.9382 31.8114 95.6231 31.8114H94.705V30.8107ZM75.1644 30.8228H75.5503C76.297 30.8228 76.6026 31.2698 76.6025 31.9239C76.6025 32.578 76.297 33.029 75.5503 33.029H75.1644V30.8228ZM60.45 30.8951C60.486 31.0286 60.6094 31.388 60.6856 31.6104L60.9375 32.3258H59.9666L60.2184 31.6145C60.2994 31.3831 60.414 31.0286 60.45 30.8951ZM88.7331 32.0244H89.5863C89.9418 32.0244 90.1469 32.2184 90.1469 32.5387C90.1469 32.8457 89.9924 33.0571 89.5741 33.0571H88.7331V32.0244Z" fill="#878787"/>
</svg>
