<svg width="113" height="46" viewBox="0 0 113 46" fill="none" xmlns="http://www.w3.org/2000/svg">
<path d="M27 44C27 45.1046 26.1046 46 25 46L2 46C0.895428 46 -3.73642e-06 45.1046 -3.63985e-06 44L3.19046e-08 2C1.28469e-07 0.895433 0.895432 5.34726e-06 2 5.44382e-06L25 7.45455e-06C26.1046 7.55111e-06 27 0.895435 27 2.00001L27 44Z" fill="#219653"/>
<path d="M14.7681 29H12.3691V19.7529L9.50537 20.6411V18.6904L14.5107 16.8975H14.7681V29Z" fill="white"/>
<path d="M70 44C70 45.1046 69.1046 46 68 46L45 46C43.8954 46 43 45.1046 43 44L43 2C43 0.895433 43.8954 5.34726e-06 45 5.44382e-06L68 7.45455e-06C69.1046 7.55111e-06 70 0.895435 70 2.00001L70 44Z" fill="#EEC341"/>
<path d="M60.2251 29H51.9409V27.3564L55.8506 23.1895C56.3874 22.6029 56.783 22.091 57.0376 21.6538C57.2977 21.2166 57.4277 20.8016 57.4277 20.4087C57.4277 19.8719 57.2922 19.4513 57.021 19.147C56.7498 18.8371 56.3625 18.6821 55.8589 18.6821C55.3166 18.6821 54.8877 18.8703 54.5723 19.2466C54.2624 19.6174 54.1074 20.1071 54.1074 20.7158H51.7002C51.7002 19.9798 51.8745 19.3075 52.2231 18.6987C52.5773 18.09 53.0754 17.6141 53.7173 17.271C54.3592 16.9224 55.0869 16.748 55.9004 16.748C57.1455 16.748 58.1112 17.0469 58.7974 17.6445C59.4891 18.2422 59.835 19.0861 59.835 20.1763C59.835 20.7739 59.68 21.3826 59.3701 22.0024C59.0602 22.6222 58.529 23.3444 57.7764 24.1689L55.0288 27.0659H60.2251V29Z" fill="white"/>
<path d="M113 44C113 45.1046 112.105 46 111 46L88 46C86.8954 46 86 45.1046 86 44L86 2C86 0.895433 86.8954 5.34726e-06 88 5.44382e-06L111 7.45455e-06C112.105 7.55111e-06 113 0.895435 113 2.00001L113 44Z" fill="#E84C4C"/>
<path d="M97.3813 21.8945H98.6597C99.2684 21.8945 99.7194 21.7424 100.013 21.438C100.306 21.1336 100.453 20.7297 100.453 20.2261C100.453 19.7391 100.306 19.36 100.013 19.0889C99.7249 18.8177 99.3265 18.6821 98.8174 18.6821C98.3581 18.6821 97.9735 18.8094 97.6636 19.064C97.3537 19.313 97.1987 19.6395 97.1987 20.0435H94.7998C94.7998 19.4126 94.9686 18.8481 95.3062 18.3501C95.6493 17.8465 96.1252 17.4536 96.7339 17.1714C97.3481 16.8892 98.0233 16.748 98.7593 16.748C100.038 16.748 101.039 17.0552 101.764 17.6694C102.489 18.2782 102.852 19.1193 102.852 20.1929C102.852 20.7463 102.683 21.2554 102.345 21.7202C102.008 22.1851 101.565 22.542 101.017 22.791C101.698 23.0345 102.204 23.3997 102.536 23.8867C102.874 24.3737 103.042 24.9492 103.042 25.6133C103.042 26.6868 102.65 27.5474 101.864 28.1948C101.083 28.8423 100.049 29.166 98.7593 29.166C97.5529 29.166 96.5651 28.8478 95.7959 28.2114C95.0322 27.575 94.6504 26.7339 94.6504 25.688H97.0493C97.0493 26.1418 97.2181 26.5125 97.5557 26.8003C97.8988 27.0881 98.3193 27.2319 98.8174 27.2319C99.3874 27.2319 99.8328 27.0825 100.154 26.7837C100.48 26.4793 100.644 26.0781 100.644 25.5801C100.644 24.3737 99.9795 23.7705 98.6514 23.7705H97.3813V21.8945Z" fill="white"/>
</svg>
