<svg width="124" height="36" viewBox="0 0 124 36" fill="none" xmlns="http://www.w3.org/2000/svg">
<rect width="36" height="36" rx="3" fill="#161616"/>
<path d="M26 27V25C26 23.9391 25.5786 22.9217 24.8284 22.1716C24.0783 21.4214 23.0609 21 22 21H14C12.9391 21 11.9217 21.4214 11.1716 22.1716C10.4214 22.9217 10 23.9391 10 25V27" fill="#161616"/>
<path d="M26 27V25C26 23.9391 25.5786 22.9217 24.8284 22.1716C24.0783 21.4214 23.0609 21 22 21H14C12.9391 21 11.9217 21.4214 11.1716 22.1716C10.4214 22.9217 10 23.9391 10 25V27H26Z" stroke="#FCFCFC" stroke-width="2" stroke-linecap="round" stroke-linejoin="round"/>
<path d="M18 17C20.2091 17 22 15.2091 22 13C22 10.7909 20.2091 9 18 9C15.7909 9 14 10.7909 14 13C14 15.2091 15.7909 17 18 17Z" fill="#161616" stroke="#FCFCFC" stroke-width="2" stroke-linecap="round" stroke-linejoin="round"/>
<rect x="44" width="36" height="36" rx="3" fill="#161616"/>
<path d="M59 16.8027L59.5007 17.6683C59.8097 17.4896 60 17.1597 60 16.8027H59ZM65 16.8027H64C64 17.1597 64.1903 17.4896 64.4993 17.6683L65 16.8027ZM60 9V7C58.8954 7 58 7.89543 58 9H60ZM60 16.8027V9H58V16.8027H60ZM58.4993 15.9371C56.4096 17.1459 55 19.4078 55 22H57C57 20.1506 58.0036 18.5343 59.5007 17.6683L58.4993 15.9371ZM55 22C55 25.866 58.134 29 62 29V27C59.2386 27 57 24.7614 57 22H55ZM62 29C65.866 29 69 25.866 69 22H67C67 24.7614 64.7614 27 62 27V29ZM69 22C69 19.4078 67.5904 17.1459 65.5007 15.9371L64.4993 17.6683C65.9964 18.5343 67 20.1506 67 22H69ZM64 9V16.8027H66V9H64ZM64 9H66C66 7.89543 65.1046 7 64 7V9ZM60 9H64V7H60V9Z" fill="#FCFCFC"/>
<circle cx="62" cy="22" r="1.5" stroke="#FCFCFC" stroke-width="3"/>
<path d="M62 19L62 12" stroke="#161616" stroke-width="2" stroke-linecap="round"/>
<rect x="88" width="36" height="36" rx="3" fill="#161616"/>
<path d="M97.5267 23H98.6716V19.3068H100.74C100.823 19.3068 100.901 19.3068 100.98 19.3022L102.974 23H104.304L102.166 19.0945C103.371 18.6836 103.934 17.7003 103.934 16.4446C103.934 14.7734 102.937 13.5455 100.721 13.5455H97.5267V23ZM98.6716 18.2727V14.5611H100.684C102.217 14.5611 102.808 15.3089 102.808 16.4446C102.808 17.5803 102.217 18.2727 100.703 18.2727H98.6716ZM105.842 23H106.987V19.9347L108.169 18.6051L111.456 23H112.841L108.871 17.8111L112.841 13.5455H111.345L107.098 18.2358H106.987V13.5455H105.842V23ZM115.468 13.5455H114.323V23H115.468V13.5455Z" fill="white"/>
</svg>
