<?xml version="1.0" encoding="UTF-8" standalone="no"?>
<svg
   xmlns:svg="http://www.w3.org/2000/svg"
   xmlns="http://www.w3.org/2000/svg"
   version="1.1"
   width="800.00006"
   height="295.49899"
   id="svg3265">
  <defs
     id="defs3267" />
  <g
     transform="translate(97.142897,-21.75554)"
     id="layer1">
    <path
       d="m 679.23213,81.036291 -16.1875,22.312499 6.78125,3.78125 20.78125,-20.906249 -11.375,-5.1875 z m -383.59375,32.468749 -2.1875,4.78125 -45.125,102.4375 12.5,0 12.375,-29.0625 43.75,0 12.09375,29.0625 12.65625,0 -43.96875,-102.4375 -2.09375,-4.78125 z m -234.812497,2.6875 c -33.29988,-4.9e-4 -54.1250001,24.87159 -54.1250001,53.71875 0,28.84931 20.9853001,52.875 54.1250001,52.875 10.75929,-4.9e-4 21.50436,-3.61406 30.25,-9.9375 l 0,-13.71875 c -8.10513,8.10366 -19.14433,13.34375 -30.625,13.34375 -24.8887,0 -41.3125,-20.54883 -41.3125,-42.96875 0,-22.42092 16.12673,-42.96875 41.0625,-42.96875 11.75139,0 22.76987,4.97135 30.875,13.34375 l 0,-13.71875 c -9.00996,-6.72705 -18.94932,-9.96875 -30.25,-9.96875 z m 75.218747,2.09375 0,102.4375 11.4375,0 0,-50.28125 34.75,0 0,-10.59375 -34.75,0 0,-41.5625 -11.4375,0 z m 61.78125,0 0,102.4375 11.40625,0 0,-102.4375 -11.40625,0 z m 181.34375,0 0,102.4375 11.40625,0 0,-44.96875 15.40625,0 23.25,44.96875 13.25,0 -24.90625,-46.53125 c 10.60382,-3.11906 20.96922,-11.27951 20.96875,-27.59375 0,-20.62599 -15.45439,-28.3125 -32.3125,-28.3125 l -27.0625,0 z m 110.5625,0 0,102.4375 11.40625,0 0,-102.4375 -11.40625,0 z m 54.5,0 0,10.59375 24.75,0 0,91.84375 11.40625,0 0,-91.84375 25,0 0,-10.59375 -61.15625,0 z m 102.4375,0 0,102.4375 55.4375,0 0,-10.59375 -44.03125,0 0,-40.21875 37.78125,0 0,-10.59375 -37.78125,0 0,-30.4375 42.34375,0 0,-10.59375 -53.75,0 z m -256.09375,10.59375 14.15625,0 c 11.80432,0 22.37547,4.70602 22.375,17.71875 0,13.01964 -9.05974,19.09375 -22.25,19.09375 l -14.28125,0 0,-36.8125 z m -95.21875,11.125 17.125,41.03125 -34.65625,0 17.53125,-41.03125 z"
       id="polygon10"
       style="fill:#000000;fill-opacity:1;fill-rule:evenodd;stroke:none" />
    <path
       d="m -97.142897,169.50441 c 0,-81.602649 65.736405,-147.74887 149.00748,-147.74887 36.46409,-4.91e-4 69.840447,13.206968 95.606777,35.096719 l 0,22.747509 C 123.691,54.368296 89.959283,38.621964 52.551213,38.621964 c -72.976915,0 -130.010455,58.391013 -130.010455,130.424396 0,72.03234 57.060795,130.42807 130.010455,130.42807 37.40812,0 71.139787,-15.74879 94.920147,-40.98027 l 0,23.66067 c -25.76607,21.89227 -59.143217,35.09971 -95.606777,35.09971 -83.202936,0 -149.00748,-66.14937 -149.00748,-147.75044 l 0,3.1e-4 z"
       id="path26"
       style="fill:#878787;fill-opacity:1;fill-rule:evenodd;stroke:none" />
    <path
       d="m 364.45088,251.69254 c -1.28048,0 -2.34375,1.06327 -2.34375,2.34375 0,1.24566 1.06376,2.3125 2.34375,2.3125 1.24566,0 2.3125,-1.06684 2.3125,-2.3125 0,-1.28049 -1.06684,-2.34375 -2.3125,-2.34375 z m 6.75,0 c -0.16,0 -0.31692,-5.8e-4 -0.46875,0.0312 -1.06278,0.2228 -1.875,1.19208 -1.875,2.3125 0,1.24566 1.06327,2.3125 2.34375,2.3125 1.24517,0 2.3125,-1.06684 2.3125,-2.3125 0,-1.28049 -1.06634,-2.34375 -2.3125,-2.34375 z m -59.625,5.84375 c -0.83695,0 -1.62087,0.0761 -2.375,0.25 -0.25138,0.058 -0.51036,0.14238 -0.75,0.21875 -0.23964,0.0764 -0.46086,0.15568 -0.6875,0.25 -0.22664,0.0943 -0.44388,0.20069 -0.65625,0.3125 -2.12369,1.11811 -3.5,3.10207 -3.5,5.71875 0,1.89217 0.44846,3.1856 1.40625,4.1875 0.13683,0.14313 0.28072,0.27487 0.4375,0.40625 0.31356,0.26276 0.66852,0.52462 1.0625,0.75 0.39398,0.22538 0.83729,0.42415 1.3125,0.625 0.95043,0.40169 2.06351,0.77569 3.34375,1.15625 0.50605,0.15142 0.98001,0.29238 1.40625,0.4375 2.98367,1.01586 4.0625,1.92757 4.0625,3.5625 0,1.76477 -0.92465,2.87131 -2.8125,3.3125 -0.31464,0.0735 -0.66228,0.11948 -1.03125,0.15625 -0.36897,0.0368 -0.76366,0.0625 -1.1875,0.0625 -2.28193,0 -4.65355,-1.10999 -6.28125,-2.875 l -2.59375,2.53125 c 1.78643,2.08893 4.33696,3.51965 7.3125,3.84375 0.42508,0.0463 0.87131,0.0625 1.3125,0.0625 6.19204,0 8.9375,-2.98393 8.9375,-7.34375 0,-1.35155 -0.2674,-2.42486 -0.8125,-3.3125 -0.10902,-0.17753 -0.24589,-0.33703 -0.375,-0.5 -1.29108,-1.62973 -3.57707,-2.56056 -6.5625,-3.46875 -1.04679,-0.31142 -1.90116,-0.59545 -2.59375,-0.875 -0.3463,-0.13977 -0.63694,-0.2982 -0.90625,-0.4375 -1.34654,-0.69651 -1.78125,-1.40914 -1.78125,-2.46875 0,-0.20328 0.0238,-0.40027 0.0625,-0.59375 0.0387,-0.19348 0.0772,-0.38328 0.15625,-0.5625 0.47402,-1.0753 1.68581,-1.84375 3.8125,-1.84375 2.08896,0 3.6789,0.56119 5.0625,1.75 0.19766,0.16983 0.40347,0.36786 0.59375,0.5625 l 2.5625,-2.59375 c -2.14505,-2.07594 -4.65023,-3.28125 -7.9375,-3.28125 z m 100.65625,0 c -4.46327,0 -7.96875,2.56331 -7.96875,6.75 0,4.32497 2.44156,5.60274 7.5625,7.125 4.04842,1.21133 5.46924,2.13151 5.46875,4 0,1.76477 -0.92486,2.87131 -2.8125,3.3125 -0.31461,0.0735 -0.66238,0.11948 -1.03125,0.15625 -0.36887,0.0368 -0.76384,0.0625 -1.1875,0.0625 -2.28536,0 -4.65699,-1.10999 -6.28125,-2.875 l -2.59375,2.53125 c 1.78643,2.08893 4.33729,3.51965 7.3125,3.84375 0.42503,0.0463 0.87125,0.0625 1.3125,0.0625 6.19301,0 8.93799,-2.98393 8.9375,-7.34375 0,-1.35155 -0.2671,-2.42486 -0.8125,-3.3125 -0.10908,-0.17753 -0.24583,-0.33703 -0.375,-0.5 -1.29168,-1.62973 -3.57892,-2.56056 -6.5625,-3.46875 -1.04667,-0.31142 -1.90118,-0.59545 -2.59375,-0.875 -0.34628,-0.13977 -0.63694,-0.2982 -0.90625,-0.4375 -1.34656,-0.69651 -1.78125,-1.40914 -1.78125,-2.46875 0,-0.20328 0.0239,-0.40027 0.0625,-0.59375 0.0386,-0.19348 0.0774,-0.38328 0.15625,-0.5625 0.47321,-1.0753 1.68323,-1.84375 3.8125,-1.84375 2.08893,0 3.67857,0.56119 5.0625,1.75 0.1977,0.16983 0.40341,0.36786 0.59375,0.5625 l 2.5625,-2.59375 c -2.14506,-2.07594 -4.65169,-3.28125 -7.9375,-3.28125 z m -240.28125,0.375 0,14.03125 c 0,6.67853 3.10773,10.5625 9.09375,10.5625 6.02035,0 9.3125,-3.68677 9.3125,-10.46875 l 0,-14.125 -3.65625,0 0,14.1875 c 0,4.42897 -1.78565,6.78125 -5.59375,6.78125 -3.63349,0 -5.53125,-2.46399 -5.53125,-7.03125 l 0,-13.9375 -3.625,0 z m 25.09375,0 0,24.21875 3.53125,0 0,-12.5625 c 0,-1.34964 -0.0312,-4.69432 -0.0312,-5.59375 0.38057,0.62283 1.22449,2.06884 1.8125,2.96875 l 9.65625,15.1875 3.4375,0 0,-24.21875 -3.53125,0 0,12.5 c 0,1.34962 0.0625,4.78807 0.0625,5.6875 -0.34574,-0.62283 -1.40841,-2.40285 -2.03125,-3.40625 l -9.1875,-14.78125 -3.71875,0 z m 25.46875,0 0,24.21875 3.65625,0 0,-24.21875 -3.65625,0 z m 9.1875,0 8.40625,24.21875 3.84375,0 8.28125,-24.21875 -3.875,0 -4.96875,15.40625 c -0.2251,0.70939 -0.52611,1.60704 -0.78125,2.4375 -0.25514,0.83046 -0.45853,1.56745 -0.5625,2 -0.20745,-0.8651 -0.89404,-2.98797 -1.34375,-4.40625 l -5.0625,-15.4375 -3.9375,0 z m 25.90625,0 0,24.21875 16.125,0 0,-3.53125 -12.5,0 0,-7.65625 6.96875,0 0,-3.53125 -6.96875,0 0,-5.96875 11.96875,0 0,-3.53125 -15.59375,0 z m 21.875,0 0,24.21875 3.5625,0 0,-9.59375 5.46875,0 4.8125,9.59375 4.1875,0 -4.96875,-9.90625 c 3.28873,-0.83082 5.34375,-3.21847 5.34375,-7.09375 0,-4.98264 -3.55777,-7.21875 -7.78125,-7.21875 l -10.625,0 z m 47.03125,0 0,24.21875 3.625,0 0,-24.21875 -3.625,0 z m 9.15625,0 0,3.5625 7.0625,0 0,20.65625 3.625,0 0,-20.65625 7.0625,0 0,-3.5625 -17.75,0 z m 30.3125,0 -8.71875,24.21875 3.78125,0 2,-5.75 9.6875,0 2.03125,5.75 3.875,0 -8.8125,-24.21875 -3.84375,0 z m 16.5,0 0,3.5625 7.0625,0 0,20.65625 3.625,0 0,-20.65625 7.0625,0 0,-3.5625 -17.75,0 z m 44.5,0 0,24.21875 3.4375,0 0,-12.8125 c 0,-1.45311 -0.0604,-3.55802 -0.0937,-4.25 0.27512,0.69198 0.97593,2.42854 1.5625,3.8125 l 5.8125,13.625 5.875,-13.625 c 0.58997,-1.38396 1.28397,-3.12052 1.5625,-3.8125 -0.0348,0.69198 -0.0625,2.79689 -0.0625,4.25 l 0,12.8125 3.5625,0 0,-24.21875 -3.875,0 -5.3125,12.90625 c -0.29402,0.70939 -0.61604,1.48343 -0.90625,2.21875 -0.29021,0.73532 -0.54539,1.4358 -0.71875,1.9375 -0.30945,-1.00339 -1.09946,-2.77229 -1.6875,-4.15625 l -5.40625,-12.90625 -3.75,0 z m 28.53125,0 0,24.21875 16.125,0 0,-3.53125 -12.46875,0 0,-7.65625 6.9375,0 0,-3.53125 -6.9375,0 0,-5.96875 11.96875,0 0,-3.53125 -15.625,0 z m 21.875,0 0,24.21875 6.625,0 c 6.33327,0 11.78125,-3.57849 11.78125,-12.125 0,-8.54649 -5.27632,-12.09375 -11.78125,-12.09375 l -6.625,0 z m 24.25,0 0,24.21875 3.65625,0 0,-24.21875 -3.65625,0 z m 10.3125,0 0,3.34375 9,0 c 1.4188,0 3.90591,-0.0282 4.875,-0.0625 -0.62284,0.62283 -1.95712,2.19075 -2.71875,3.125 l -11.84375,14.28125 0,3.53125 18.40625,0 0,-3.34375 -9.53125,0 c -1.41881,0 -3.90639,0.0277 -4.875,0.0625 0.62284,-0.62284 1.95712,-2.19075 2.71875,-3.125 l 11.6875,-14.28125 0,-3.53125 -17.71875,0 z m 24.125,0 0,24.21875 3.625,0 0,-24.21875 -3.625,0 z m 10.6875,0 0,24.21875 3.53125,0 0,-12.5625 c 0,-1.34964 -0.0307,-4.69432 -0.0312,-5.59375 0.38252,0.62283 1.22593,2.06884 1.8125,2.96875 l 9.65625,15.1875 3.4375,0 0,-24.21875 -3.53125,0 0,12.5 c 0,1.34962 0.0625,4.78807 0.0625,5.6875 -0.34573,-0.62283 -1.41041,-2.40285 -2.03125,-3.40625 l -9.1875,-14.78125 -3.71875,0 z m 35.21875,0 0,24.21875 9.625,0 c 0.33085,0 0.6559,-0.0115 0.96875,-0.0312 4.6927,-0.29552 7.34375,-2.79984 7.34375,-7.40625 0,-3.35644 -2.19043,-5.13738 -4.09375,-5.65625 1.76453,-0.8651 3.09428,-2.38724 3.09375,-4.84375 0,-4.08323 -2.7472,-6.28125 -6.96875,-6.28125 l -9.96875,0 z m 23.96875,0 0,24.21875 16.125,0 0,-3.53125 -12.5,0 0,-7.65625 6.96875,0 0,-3.53125 -6.96875,0 0,-5.96875 11.96875,0 0,-3.53125 -15.59375,0 z m 21.84375,0 0,24.21875 3.5625,0 0,-9.59375 5.46875,0 4.8125,9.59375 4.1875,0 -4.9375,-9.90625 c 3.28874,-0.83082 5.31302,-3.21847 5.3125,-7.09375 0,-4.98264 -3.55823,-7.21875 -7.78125,-7.21875 l -10.625,0 z m 24.625,0 0,24.21875 15.6875,0 0,-3.5625 -12.0625,0 0,-20.65625 -3.625,0 z m 21.34375,0 0,24.21875 3.625,0 0,-24.21875 -3.625,0 z m 10.6875,0 0,24.21875 3.53125,0 0,-12.5625 c 0,-1.34964 -0.0308,-4.69432 -0.0312,-5.59375 0.38053,0.62283 1.19374,2.06884 1.78125,2.96875 l 9.65625,15.1875 3.46875,0 0,-24.21875 -3.53125,0 0,12.5 c 0,1.34962 0.0312,4.78807 0.0312,5.6875 -0.34619,-0.62283 -1.37716,-2.40285 -2,-3.40625 l -9.21875,-14.78125 -3.6875,0 z m -99.03125,3.3125 6.5,0 c 2.4217,0 3.37547,1.38816 3.375,3.1875 0,1.5919 -0.98763,3.09375 -3.375,3.09375 l -6.5,0 0,-6.28125 z m -302.375,0.125 7.0625,0 c 2.457,0 4.09375,1.3806 4.09375,3.90625 0,2.63011 -1.66961,3.875 -4.09375,3.875 l -7.0625,0 0,-7.78125 z m 348.3125,0 7.0625,0 c 2.4565,0 4.125,1.3806 4.125,3.90625 0,2.63011 -1.70137,3.875 -4.125,3.875 l -7.0625,0 0,-7.78125 z m -150.3125,0.0937 2.96875,0 c 5.7433,0 8.09422,3.47637 8.09375,8.5625 0,5.08659 -2.35045,8.59375 -8.09375,8.59375 l -2.96875,0 0,-17.15625 z m -113.1875,0.56255 c 0.27708,1.03823 1.22595,3.83231 1.8125,5.5625 l 1.9375,5.5625 -7.46875,0 1.9375,-5.53125 c 0.62283,-1.79936 1.50465,-4.55553 1.78125,-5.59375 z m 217.5625,8.78125 6.5625,0 c 2.73503,0 4.31297,1.50868 4.3125,4 0,2.38735 -1.18812,4.03125 -4.40625,4.03125 l -6.46875,0 0,-8.03125 z"
       id="path30"
       style="fill:#878787;fill-opacity:1;fill-rule:evenodd;stroke:none" />
  </g>
</svg>
